<svg id="Pack" xmlns="http://www.w3.org/2000/svg" viewBox="0 0 97.2 96.76"><defs><style>.cls-1{fill:#37a7b8;}.cls-2{fill:#164056;}.cls-3,.cls-4,.cls-5{fill:none;stroke-miterlimit:10;}.cls-3{stroke:#164056;stroke-width:1.66px;}.cls-4,.cls-5{stroke:#37a7b8;stroke-width:2px;}.cls-4{stroke-linecap:round;}</style></defs><title>Back Pack</title><circle class="cls-1" cx="48.61" cy="48.38" r="45.96"/><path class="cls-2" d="M65.36,23.38H31.93c-2.17,0-4.35,2.31-4.35,4.09V69.72A4.51,4.51,0,0,0,32,74.15H65.36a4.76,4.76,0,0,0,4.54-4.32V27.73A4.85,4.85,0,0,0,65.36,23.38Z"/><path class="cls-2" d="M25.77,34.72v3h-3A2.84,2.84,0,0,1,25.77,34.72Z"/><path class="cls-2" d="M22.78,39.53h3v9.58c-1,0-3-2.48-3-3.85Z"/><path class="cls-2" d="M25.77,55.85v3.09H20.4c0-1.54.91-3.09,2.38-3.09Z"/><path class="cls-2" d="M25.77,60.87H20.4v7.2c0,4.51,4.2,6.08,7.18,6.08a6.24,6.24,0,0,1-1.81-4.41Z"/><path class="cls-2" d="M71.7,34.72v3h3A2.84,2.84,0,0,0,71.7,34.72Z"/><path class="cls-2" d="M74.69,39.53h-3v9.58c1,0,3-2.48,3-3.85Z"/><path class="cls-2" d="M71.7,55.85v3.09h5.38c0-1.54-.92-3.09-2.39-3.09Z"/><path class="cls-2" d="M71.7,60.87h5.38v7.2c0,4.51-4.21,6.08-7.18,6.08a6.27,6.27,0,0,0,1.8-4.41Z"/><path class="cls-3" d="M42.14,21.49c0-2.54,3.3-5.07,7-5.07s6.38,3.75,6.38,5.07"/><line class="cls-4" x1="33.93" y1="33.7" x2="43.11" y2="33.7"/><path class="cls-5" d="M27.3,42.2c1.22.2,2.92,2.63,5,2.6h33.3C67,44.8,68.72,42,70.31,42"/><polyline class="cls-5" points="41.27 33.95 41.27 48.02 38.56 50.44 35.86 48.1 35.86 33.95"/><line class="cls-4" x1="54.22" y1="33.7" x2="63.39" y2="33.7"/><polyline class="cls-5" points="61.56 33.95 61.56 48.02 58.85 50.44 56.15 48.1 56.15 33.95"/><path class="cls-5" d="M35.86,55v8.87c0,2.74,2.76,6.39,5.41,6.39H55.78c2.11,0,6.08-3.55,6.08-6.75V55Z"/></svg>