<svg xmlns="http://www.w3.org/2000/svg" viewBox="0 0 396 234"><defs><style>.cls-1,.cls-3,.cls-4,.cls-6,.cls-7,.cls-8{fill:none;stroke-miterlimit:10;}.cls-1,.cls-6{stroke:#cb5;}.cls-2{fill:#cb5;}.cls-3,.cls-4{stroke:#536bb2;}.cls-3,.cls-8{stroke-width:2px;}.cls-4{stroke-width:3px;}.cls-5{fill:#536bb2;}.cls-6{stroke-width:0.93px;}.cls-7{stroke:#f26631;}.cls-8{stroke:#41b0b2;}.cls-9{fill:#f26631;}</style></defs><title>casa_almendra_logo</title><g id="Layer_6" data-name="Layer 6"><line class="cls-1" x1="108.6" y1="102.02" x2="139.68" y2="111.03"/><line class="cls-1" x1="135.71" y1="91.63" x2="147.8" y2="99.35"/><line class="cls-1" x1="154.09" y1="84.58" x2="159.09" y2="90.77"/><line class="cls-1" x1="168.5" y1="79.06" x2="171.1" y2="84.58"/><line class="cls-1" x1="180.48" y1="74.47" x2="182.63" y2="81.44"/><line class="cls-1" x1="194.85" y1="68.96" x2="194.85" y2="81.82"/><line class="cls-1" x1="209.03" y1="74.15" x2="206.5" y2="81.82"/><line class="cls-1" x1="221.19" y1="78.61" x2="217.72" y2="85.79"/><line class="cls-1" x1="253.64" y1="90.49" x2="233.6" y2="103.65"/><line class="cls-1" x1="281.25" y1="100.61" x2="239.14" y2="112.1"/><path class="cls-2" d="M136.22,118.66a61.88,61.88,0,0,1,116,0"/><line class="cls-3" x1="65.17" y1="118.66" x2="325.62" y2="118.66"/><line class="cls-4" x1="65.17" y1="151.5" x2="325.62" y2="151.5"/><path class="cls-5" d="M65.17,157.17H325.62c0,30.83-74.1,48.27-130.77,48.27C155.54,205.44,65.17,194,65.17,157.17Z"/><path class="cls-1" d="M83.79,180.74c8.83,3,40.14.78,44.42-3.5,4.29,4.28,34.81,5.58,44.43,0,8.31,5.84,40.13,4.28,44.42,0,4.28,4.28,35.33,4.88,44.42,0,7.92,5.22,40.91,8.83,47.8,2.65"/><path class="cls-6" d="M95.63,187.76c7.66,3,37.41,2.49,41.13-1.8,3.72,4.29,30.21,5.59,38.55,0,7.21,5.85,34.82,4.29,38.54,0,3.72,4.29,30.65,4.88,38.54,0,6.88,5.22,34.67,5.91,41.48,2.65"/><path class="cls-6" d="M118.17,196c7,1.38,16.39.31,18-1.61,3.72,4.28,30.21,5.58,38.55,0,7.21,5.84,34.82,4.28,38.54,0,3.72,4.28,30.65,4.88,38.54,0,3.41,2.58,13.09,3.82,21.52.78"/><path class="cls-7" d="M194.8,209.79c62.82,0,134.66-19.84,134.66-51.35V115.56L194.8,64.6l-133,51v42.88C61.84,190,132,209.79,194.8,209.79Z"/><path class="cls-8" d="M194.85,205.44c59.05,0,130.77-18.59,130.77-48.21V116.86L194.85,69,65.17,118.66v38.51C65.17,186.79,135.8,205.44,194.85,205.44Z"/><line class="cls-1" x1="235.4" y1="83.81" x2="227.28" y2="93.29"/><path class="cls-9" d="M80.9,134.35c0-5.82,3.33-9.07,8.62-9.07a18.37,18.37,0,0,1,3,.22h3.37v5.92h-3.1l-.47-2.72a7,7,0,0,0-2.18-.32c-2.42,0-4.17,1.62-4.17,5.77,0,4,1.3,6,4,6a4.66,4.66,0,0,0,3.78-2H96v3.17a11.17,11.17,0,0,1-6.4,1.85C84.1,143.22,80.9,140.1,80.9,134.35Z"/><path class="cls-9" d="M98.48,140.47H99a1,1,0,0,0,1-.77l3.88-10.85a.5.5,0,0,0-.45-.72h-1.1V125.5h8.32l4.67,14.35a1,1,0,0,0,.8.62h.53V143H108.4v-2.53h2.15l-.9-2.85H104l-.19.6c-.5,1.45-.38,2.25.82,2.25h.87V143h-7Zm10.44-5.25L107,129.05h0l-2.15,6.17Z"/><path class="cls-9" d="M122.31,143H119v-5.38h3.18l.4,2.48a6.3,6.3,0,0,0,2.1.27c1.77,0,2.62-.72,2.62-2.07,0-1.65-1.7-1.88-3.87-2.5-2.43-.68-4.25-1.9-4.25-5.18,0-3.62,2.5-5.34,6.22-5.34a15.2,15.2,0,0,1,2.9.22h2.95v4.9h-3.12l-.4-2.1a5.77,5.77,0,0,0-1.88-.27c-1.62,0-2.52.62-2.52,1.92,0,1.55,1.5,1.85,3.25,2.32,3.6.95,5.2,2.08,5.2,5.3,0,3.68-2.2,5.65-6.65,5.65A17.26,17.26,0,0,1,122.31,143Z"/><path class="cls-9" d="M134,140.47h.47a1,1,0,0,0,.95-.77l3.87-10.85a.49.49,0,0,0-.45-.72h-1.09V125.5h8.32l4.67,14.35a1,1,0,0,0,.8.62h.53V143h-8.15v-2.53h2.15l-.9-2.85h-5.68l-.2.6c-.5,1.45-.37,2.25.83,2.25H141V143h-7Zm10.44-5.25-1.92-6.17h-.05l-2.15,6.17Z"/><path class="cls-9" d="M160.1,140.47h.47a1,1,0,0,0,1-.77l3.87-10.85a.49.49,0,0,0-.45-.72h-1.1V125.5h8.33l4.67,14.35a1,1,0,0,0,.8.62h.53V143H170v-2.53h2.15l-.9-2.85h-5.68l-.2.6c-.5,1.45-.37,2.25.83,2.25h.87V143h-7Zm10.44-5.25-1.92-6.17h-.05l-2.15,6.17Z"/><path class="cls-9" d="M180.57,140.47h.85a.87.87,0,0,0,.72-.75V128.85a.84.84,0,0,0-.72-.72h-.85V125.5h8.52v2.63h-2.2v12.14h4.4l.4-3.4h3V143H180.57Z"/><path class="cls-9" d="M197.1,140.47H198a.87.87,0,0,0,.72-.75V128.85a.84.84,0,0,0-.72-.72h-.85V125.5h8.3l2.72,10.15h.08L211,125.5h8.27v2.63h-.88a.85.85,0,0,0-.7.72v10.87a.88.88,0,0,0,.7.75h.88V143h-7.85v-2.53h1.57V129.05h-.07L209,143h-3l-3.83-13.95h-.07v11.42h1.65V143H197.1Z"/><path class="cls-9" d="M221.92,140.47h.85a.88.88,0,0,0,.73-.75V128.85a.85.85,0,0,0-.73-.72h-.85V125.5h14.37v5.2h-2.8l-.42-2.37h-4.83v4.44h2.33l.2-1.52h2.55V137h-2.55l-.2-1.55h-2.33v4.85h4.95l.4-2.75h2.95V143H221.92Z"/><path class="cls-9" d="M239.35,140.47h.85a.87.87,0,0,0,.72-.75V128.85a.84.84,0,0,0-.72-.72h-.85V125.5h6.22l6.2,10.25h.07v-7.62h-1.77V125.5h6.72v2.63H256a.85.85,0,0,0-.7.72V143h-4.07l-6.8-11.2h-.07v8.67h1.82V143h-6.82Z"/><path class="cls-9" d="M259.29,140.47h.85a.87.87,0,0,0,.72-.75V128.85a.84.84,0,0,0-.72-.72h-.85V125.5h7.62c6.22,0,9.47,2.7,9.47,8.65s-3.3,8.85-9.59,8.85h-7.5Zm7.5-.12c3.14,0,4.69-1.88,4.69-6.08s-1.52-6-4.69-6h-1.18v12Z"/><path class="cls-9" d="M278.7,140.47h.84a.88.88,0,0,0,.73-.75V128.85a.85.85,0,0,0-.73-.72h-.84V125.5h8c4.7,0,7.15,1.63,7.15,4.95,0,2.22-1.22,3.42-3.72,4v.1c1.9.38,2.75,1.15,3.42,3.83l.38,1.5c.12.45.4.62.62.62h.65V143h-5.6l-.72-4.75c-.23-1.83-.83-2.4-2.55-2.4H285v4.62h1.92V143H278.7Zm7.74-7.05c2.15,0,2.65-1,2.65-2.57s-.5-2.55-2.65-2.55h-1.5v5.12Z"/><path class="cls-9" d="M297.63,140.47h.47a1,1,0,0,0,.95-.77l3.88-10.85a.5.5,0,0,0-.45-.72h-1.1V125.5h8.32l4.67,14.35a1,1,0,0,0,.8.62h.53V143h-8.15v-2.53h2.15l-.9-2.85h-5.68l-.19.6c-.5,1.45-.38,2.25.82,2.25h.87V143h-7Zm10.44-5.25-1.92-6.17h0L304,135.22Z"/></g></svg>