<svg xmlns="http://www.w3.org/2000/svg" xmlns:xlink="http://www.w3.org/1999/xlink" viewBox="0 0 396 234"><defs><style>.cls-1{fill:none;}.cls-2{clip-path:url(#clip-path);}.cls-10,.cls-3,.cls-9{fill:#536bb2;}.cls-3{stroke:#536bb2;}.cls-3,.cls-4,.cls-5,.cls-6,.cls-7,.cls-8,.cls-9{stroke-miterlimit:10;}.cls-4{fill:#41b0b2;stroke:#41b0b2;}.cls-5{fill:#f26631;stroke:#f26631;}.cls-6{fill:#a64223;stroke:#a64223;}.cls-7{fill:#b27133;stroke:#b27133;}.cls-8{fill:#cb5;stroke:#cb5;}.cls-9{stroke:#fff;stroke-width:2px;}</style><clipPath id="clip-path"><circle class="cls-1" cx="131.05" cy="145.15" r="93.58"/></clipPath></defs><title>casa_almendra_logo</title><g id="Sun_-_left" data-name="Sun - left"><g class="cls-2"><rect class="cls-3" x="19.58" y="127.27" width="218.46" height="19.78"/><rect class="cls-4" x="19.58" y="147.71" width="218.46" height="19.78"/><rect class="cls-5" x="19.58" y="106.17" width="218.46" height="19.78"/><rect class="cls-6" x="19.58" y="85.07" width="218.46" height="19.78"/><rect class="cls-7" x="19.58" y="63.97" width="218.46" height="19.78"/><rect class="cls-8" x="19.58" y="42.87" width="218.46" height="19.78"/></g><path class="cls-9" d="M255.3,110.36H250c-7.06,0-12.53,4.25-12.53,13.11s5.47,13.1,12.53,13.1h5.26v12.1h-7.56c-13.54,0-23.33-11.38-23.33-25.2s9.79-25.21,23.33-25.21h7.56Z"/><path class="cls-9" d="M262.35,148.67V115.54c0-10.8,7.13-18.14,17.64-18.14s17.64,7.34,17.64,18.14v33.13H285.1V131.1h-7.85V119.72h7.85V115c0-3.75-2-6.19-5.11-6.19s-5.11,2.44-5.11,6.19v33.7Z"/><path class="cls-9" d="M332.55,109.93H319.88c-1.59,0-2.88.57-2.88,2.09,0,4.25,18.79,9.72,18.79,21.53,0,6.48-1.65,15.12-17.78,15.12H304.54V137h13c2.88,0,4.68-.86,4.68-2.73,0-5.33-18.07-9.65-18.07-21.75,0-10.51,7.42-14.26,15.27-14.26h13.1Z"/><path class="cls-9" d="M342.34,148.67V115.54c0-10.8,7.13-18.14,17.64-18.14s17.64,7.34,17.64,18.14v33.13H365.09V131.1h-7.84V119.72h7.84V115c0-3.75-2-6.19-5.11-6.19s-5.11,2.44-5.11,6.19v33.7Z"/><path class="cls-9" d="M34.33,203.67V170.54c0-10.8,7.13-18.14,17.64-18.14s17.64,7.34,17.64,18.14v33.13H57.08V186.1H49.23V174.72h7.85V170c0-3.75-2-6.19-5.11-6.19s-5.11,2.44-5.11,6.19v33.7Z"/><path class="cls-9" d="M105.18,203.67H95.6c-12.17,0-17.93-4.61-17.93-16.28V153.26H90.2v33c0,4.11,1.37,5.33,6.41,5.33h8.57Z"/><path class="cls-9" d="M107.19,203.67l4-40.33c.72-7.34,2.38-10.94,9.87-10.94,4.89,0,8.06,2.88,9,9.22l3.67,24.26h.36l3.67-24.26c.94-6.34,4.11-9.22,9-9.22,7.49,0,9.15,3.6,9.87,10.94l4,40.33H148.74l-2.23-41h-.15v1.16l-6.19,34.27c-.72,3.89-3.17,6.48-6.27,6.48s-5.54-2.59-6.26-6.48l-6.19-34.27h-.15l-2.16,39.89Z"/><path class="cls-9" d="M194.53,164.93c-11.59,0-13.61,1.29-16.78,8.06h16.78v10.95H177.75c3.31,7.34,5.47,8.06,16.78,8.06v11.67H187.4c-13.54,0-23-11.23-23-25.2s9.5-25.21,23-25.21h7.13Z"/><path class="cls-9" d="M202,203.67V159.31c0-4,3.17-6.91,7.42-6.91s6.77,1.66,8.64,5.33l11.16,22.18h.15V153.26h12.53v43.93c0,4.61-3.46,7.34-6.63,7.34s-5.61-1.51-8.93-7.92l-11.66-22.46h-.15v29.52Z"/><path class="cls-9" d="M265.66,191.57A12.48,12.48,0,0,0,278.12,179c0-9.65-7.06-13.68-15.48-13.68v38.31H250.11V153.26h12.75c18.14,0,28.08,11.53,28.08,25.64,0,14.54-10.88,24.77-25.28,24.77Z"/><path class="cls-9" d="M297.85,203.67V171.05c0-12,7.12-18.65,17.93-18.65,9.93,0,16.84,5.47,16.84,15,0,6.26-2.88,9.79-8.56,10.37v.14c4.53,1,9.36,2,9.36,8.35v17.43H320.74V188.4c0-3-2.08-4-7.56-4V173.07c4.47-.08,6.77-1.08,6.77-5,0-2.81-2.45-4-4.46-4-3,0-4.54,1.88-4.54,6.92v32.69Z"/><path class="cls-9" d="M342.34,203.67V170.54c0-10.8,7.13-18.14,17.64-18.14s17.64,7.34,17.64,18.14v33.13H365.09V186.1h-7.84V174.72h7.84V170c0-3.75-2-6.19-5.11-6.19s-5.11,2.44-5.11,6.19v33.7Z"/><path class="cls-10" d="M360.35,206.59H40.26c-9.61,0-10.81,8.65,0,8.65H72.31c-.8,4.69-15.17,6.48-12.82,8.9,3.61,3.7,24.44,1.07,29.25-2.23a10.15,10.15,0,0,0,4.4-7.17h261.6c7.61,0,24.43-3.46,23.23-6.92S368.76,204.61,360.35,206.59Z"/></g></svg>