<svg xmlns="http://www.w3.org/2000/svg" viewBox="0 0 396 234"><defs><style>.cls-1{fill:#cb5;}.cls-2{fill:none;stroke:#f26631;stroke-miterlimit:10;stroke-width:3.71px;}.cls-3{fill:#41b0b2;}.cls-4{fill:#536bb2;}.cls-5{fill:#f26631;}</style></defs><title>casa_almendra_logo</title><g id="Waves"><path class="cls-1" d="M107.73,92.29a82.66,82.66,0,0,1,146.48,0"/><line class="cls-2" x1="20.54" y1="92.29" x2="330.91" y2="92.29"/><path class="cls-3" d="M311.91,139c7.92-6.24,4.7-21.69,1.34-29.55-4.47,5.08-13.9-1.89-13.9-6.68-4.31,2.56-11.5-1.92-6.71-10.49-4.79,8.57-18.38,0-14.7-8.2,2.06-4.58,12.57-14.35,15-14.78,9-1.6,38.18.72,44.42,17.49S317.59,139.77,311.91,139Z"/><line class="cls-2" x1="20.54" y1="166.05" x2="330.91" y2="166.05"/><path class="cls-4" d="M370,104.63c0-48.61-55.84-90.7-101.4-45.14-4.71,4.71,3.06,14,8.28,5.14-5.22,8.85,5.45,20.1,16,4.68-5.54,7.39,1.73,16.63,9.12,11.46-2.84,7.88,5.67,18.73,19.46,7.64,9.39,26.61,2,51.5-31.66,62.83-20,6.75-56.18-2-73.92-2S171.09,162.33,160.13,179c12.78-7.05,35.13-10.29,52.31-10.29,24.95,0,46.66,10.29,85.21,10.29S370,152.71,370,104.63Z"/><path class="cls-3" d="M178.54,179c48.57-4.13,83.17,18.39,116.44,18.39,39.53,0,64.22-32.73,71.91-45.79-19.32,17-40.43,33.81-69.94,33.81S202.33,162.72,178.54,179Z"/><path class="cls-5" d="M38.59,102.55c1.79,1.49,4.46,3.68,4.46,7.54a27.26,27.26,0,0,1-3.86,13.06A4.49,4.49,0,0,1,35.8,119c0-3.86,1.9-8,1.9-10.51a.86.86,0,0,0-.41-.77c-3.56,1.78-8.79,15.73-8.79,24,0,5.64,2,7.42,4.63,7.42A9.72,9.72,0,0,0,40,136c.24-.24.36-.29.47-.29a1.11,1.11,0,0,1,1,1.18c-.47,2.14-4.15,6.41-8.31,6.41-2.84,0-3.74-2-4.63-2.49-3-1.78-5.16-5.22-5.16-11.46,0-6.53,3.56-27.89,8.9-29.67C34.62,99.71,36.1,100.48,38.59,102.55Z"/><path class="cls-5" d="M55.57,132.11a43.82,43.82,0,0,0-10.21,3.09c-.77,3-1.3,5.7-1.72,8.25-1,.71-3.2-.71-3.68-1.9,3-12.17,9.5-27,12.47-40.48a2,2,0,0,1,1.78-.77,7.54,7.54,0,0,1,3.86,1.19c.53.29,1.78.29,2.07,1.18a18.81,18.81,0,0,0-.59,5,141.41,141.41,0,0,0,4.75,34.13,10,10,0,0,1-3.74.89c-1,0-3.09-.42-3.38-1.6C56.64,138.7,56.11,135.62,55.57,132.11Zm-2.43-19.94c-.06-.24-.18-.18-.24,0-2.25,5.82-4.33,11.75-6.17,18A35.35,35.35,0,0,0,55,128C54.21,122.85,53.61,117.51,53.14,112.17Z"/><path class="cls-5" d="M72.61,99.71c2.08,0,7.12,4.45,8.31,6.23a6.59,6.59,0,0,1,1.19,4.33c0,2.2-2.08,7.84-3.45,9.91a3.32,3.32,0,0,1-.59.06,2.67,2.67,0,0,1-2.79-2.73c0-1.84.89-5.93.89-8.43a3.56,3.56,0,0,0-.3-1.66c-1.78,1.19-3.85,5.64-3.85,9.8,0,7.59,8.72,11.57,8.72,17.8,0,2.08-1.72,4.16-2.79,5.23a7.85,7.85,0,0,1-5,2.49c-3.27,0-10.69-4.75-11-7.42a1.33,1.33,0,0,1,.9-1.19C65.19,135.5,68.16,138,72,138a2.75,2.75,0,0,0,3-2.37c0-4.87-9.79-10.51-9.79-18.4C65.19,108,70.83,99.71,72.61,99.71Z"/><path class="cls-5" d="M95.34,132.11a43.82,43.82,0,0,0-10.21,3.09c-.77,3-1.3,5.7-1.72,8.25-1,.71-3.2-.71-3.68-1.9,3-12.17,9.5-27,12.47-40.48A2,2,0,0,1,94,100.3a7.51,7.51,0,0,1,3.86,1.19c.53.29,1.78.29,2.08,1.18a18.64,18.64,0,0,0-.6,5,141.41,141.41,0,0,0,4.75,34.13,10,10,0,0,1-3.74.89c-1,0-3.09-.42-3.38-1.6C96.41,138.7,95.88,135.62,95.34,132.11Zm-2.43-19.94c-.06-.24-.18-.18-.24,0-2.25,5.82-4.33,11.75-6.17,18A35.35,35.35,0,0,0,94.75,128C94,122.85,93.39,117.51,92.91,112.17Z"/><path class="cls-5" d="M126.21,132.11A43.82,43.82,0,0,0,116,135.2c-.77,3-1.3,5.7-1.72,8.25-1,.71-3.21-.71-3.68-1.9,3-12.17,9.5-27,12.46-40.48a2,2,0,0,1,1.79-.77,7.48,7.48,0,0,1,3.85,1.19c.54.29,1.78.29,2.08,1.18a18.81,18.81,0,0,0-.59,5,140.92,140.92,0,0,0,4.75,34.13,10.08,10.08,0,0,1-3.74.89c-1,0-3.09-.42-3.39-1.6C127.28,138.7,126.75,135.62,126.21,132.11Zm-2.43-19.94c-.06-.24-.18-.18-.24,0-2.26,5.82-4.33,11.75-6.17,18a35.35,35.35,0,0,0,8.25-2.14C124.85,122.85,124.25,117.51,123.78,112.17Z"/><path class="cls-5" d="M152.15,139.89c-.12.18-.65.24-1.36.36a44.68,44.68,0,0,0-7.54,1.9c-2.38.89-3.27,1.48-4.16,1.48-1.48,0-3.26-1.19-3.26-2.38,0-.59.41-.89.47-1.6-.06-1.07-.18-4-.18-5.52,0-10.09,1.79-23.44,1.79-32.94a5,5,0,0,1,3.26-1.19c1.19,0,3.86,1.19,4.45,2.38-2,9.49-4.21,26.11-4.21,33.53,0,.89,0,1.61.06,2.2a38.18,38.18,0,0,1,7.12-.71C150.13,137.4,151.68,137.69,152.15,139.89Z"/><path class="cls-5" d="M156.19,100.6c2,0,5.64,1.48,6.82,3a190,190,0,0,0,2,24.76c.06.17.18.17.24,0,3-10.69,6.17-21.79,7.24-29.21a2.73,2.73,0,0,1,1.78-.59c1.31,0,4.81,2.08,5.52,3.86-1.72,9-3.56,21.37-3.56,32.7,0,2.44.12,4.87.3,7.18a7.66,7.66,0,0,1-2.85.48,4.84,4.84,0,0,1-3.56-2.14,37.19,37.19,0,0,1-.24-4.81c0-5.16.59-12,1-17.51-.06-.17-.18-.17-.24,0-1.54,5.82-3.32,13.18-3.8,18.82a2.85,2.85,0,0,1-2,.71,5.68,5.68,0,0,1-4.33-2c-.89-6.11-2.55-17.09-3.62-22.14-.06-.17-.18-.17-.24,0a221.64,221.64,0,0,0-1.95,24.1,47.28,47.28,0,0,0,.29,5.4,1.46,1.46,0,0,1-1,.48,3.87,3.87,0,0,1-3-1.78c.3-12.47,3-26.12,3-39.59A3.59,3.59,0,0,1,156.19,100.6Z"/><path class="cls-5" d="M181.65,140c-1.18-.59-1.3-1.07-1.3-2.55,0-3.56,2.08-23.75,2.08-35.32a18.64,18.64,0,0,0-.18-2.2c.18-.47,1.07-.77,1.36-.77,1.78,0,3,1.49,4.46,1.49.89,0,3.26-.3,4.74-.3,5.05,0,5.76,1,5.94,3-3.27.12-7.12.59-8.9,1.6a125.78,125.78,0,0,0-2.38,16.44,2.88,2.88,0,0,0,1.49.3c1,0,2.19-.24,3.68-.24,3,0,3.74,1.31,4,3-4,.12-7.6.71-9.61,1.78-.3,3.56-.42,6.53-.42,9.08,0,1.19,0,2.2.06,3.09,2.37-.12,5.22-.3,7.6-.3,3.68,0,4.45,1.19,4.45,2.61a3.32,3.32,0,0,1-.06.54c-6.83.41-11.81,1.9-13.89,1.9C183.32,143,182.84,140.54,181.65,140Z"/><path class="cls-5" d="M203.8,100.89c1.78,0,5.22.6,6.41,1.49a1.46,1.46,0,0,1,.71,1.36c0,.71-.3,1.6-.3,3.68,0,4.45,1.78,15.73,3.44,24,.06.24.18.3.24,0,1.19-10.68,2.26-22,3-33.24a2.28,2.28,0,0,1,1.07-.3,5.41,5.41,0,0,1,3.26,1.49c-2,9.79-3.86,29.08-4.63,42.74a9.51,9.51,0,0,1-3.38.59,4,4,0,0,1-2.67-1.49c-1.19-2.37-3.15-10.38-3.86-13.94-.59-3-2.08-11.28-2.55-15.2-.06-.3-.24-.3-.3,0a285.48,285.48,0,0,0-1.48,30,3.16,3.16,0,0,1-1.31.29c-.77,0-2.37-.89-2.37-1.78,0-12.46,1.9-27.9,2.07-38.88A6.35,6.35,0,0,1,203.8,100.89Z"/><path class="cls-5" d="M225.17,100.3c.41-.12,1.18.3,2.07.59,3.56.3,6.18.65,9.5,3.56,4.27,3.74,6.83,7.42,6.83,14.25,0,12.76-11,24-15.14,24-.89,0-1.36-1.07-2.08-1.31-1.78-.59-2.79-.18-3.85-2.07-.12-1.67-.18-3.74-.18-5.82,0-8.31.83-19.59,1.66-28.2l-1.48-.29c-.84-.18-1.25-.89-1.37-2.67a21.47,21.47,0,0,1,3.44-1.19C224.81,101.13,224.81,100.42,225.17,100.3Zm2.37,36.21c5.64-2.08,10.68-9.8,10.68-20.48,0-6.65-2.07-9.2-7.71-9.5C228.43,114,227.18,130.57,227.54,136.51Z"/><path class="cls-5" d="M251.17,125.7c-.18,2.26-.18,5.17-.18,7.54,0,3,.12,5.82.29,8.61-.59.59-1.48.89-3.26.89-.89,0-3-1.49-3-3,0-15.14,1.6-23.74,1.6-38.58a2.91,2.91,0,0,1,2.26-1.19c5.64.3,9.2,2,11.57,4.45,2.85,3,4.46,6.24,4.46,10.09,0,2.68-1.78,6.24-7,10.09,2.85,6.83,6.71,14,7,15a4.17,4.17,0,0,1-3.15,2.2,2,2,0,0,1-1.6-1.19C257.16,135.32,254.25,130.27,251.17,125.7Zm.41-4.74c7.72-3.15,9.91-7.6,9.91-10.1,0-3-4.69-4.33-6.64-4.33a3.75,3.75,0,0,0-.72.06A106.08,106.08,0,0,0,251.58,121Z"/><path class="cls-5" d="M277.58,132.11a43.82,43.82,0,0,0-10.21,3.09c-.77,3-1.3,5.7-1.72,8.25-1,.71-3.21-.71-3.68-1.9,3-12.17,9.5-27,12.46-40.48a2,2,0,0,1,1.79-.77,7.48,7.48,0,0,1,3.85,1.19c.54.29,1.78.29,2.08,1.18a18.81,18.81,0,0,0-.59,5,140.92,140.92,0,0,0,4.75,34.13,10.08,10.08,0,0,1-3.74.89c-1,0-3.09-.42-3.39-1.6C278.65,138.7,278.12,135.62,277.58,132.11Zm-2.43-19.94c-.06-.24-.18-.18-.24,0-2.26,5.82-4.33,11.75-6.17,18A35.35,35.35,0,0,0,277,128C276.22,122.85,275.62,117.51,275.15,112.17Z"/><path class="cls-5" d="M25.42,157.66l.61-.9a3,3,0,0,0,2.12.8A1.64,1.64,0,0,0,30,156.08c0-1.07-1-1.5-2.13-2s-2.14-1.19-2.14-2.68A2.52,2.52,0,0,1,28.47,149a4,4,0,0,1,2.51.75l-.59.93a3.1,3.1,0,0,0-1.91-.63,1.37,1.37,0,0,0-1.55,1.31c0,.9.76,1.29,1.69,1.73,1.24.59,2.61,1.22,2.61,3,0,1.51-1.25,2.56-3.11,2.56A3.91,3.91,0,0,1,25.42,157.66Z"/><path class="cls-5" d="M35.72,149.12h1.22l3.6,9.32H39.17l-.81-2.19H34.21l-.8,2.19H32.15ZM38,155.19l-1.1-3c-.3-.78-.42-1.22-.56-1.61h0c-.13.42-.28.9-.55,1.61l-1.12,3Z"/><path class="cls-5" d="M42.08,149.12h1.24l4.21,6c.46.67.74,1.16.88,1.41h0a11.71,11.71,0,0,1-.06-1.3v-6.13h1.16v9.32H48.38L44,152.08c-.32-.46-.6-1-.76-1.24h0a9.73,9.73,0,0,1,.06,1.06v6.54H42.08Z"/><path class="cls-5" d="M53.54,161l.2-1.07a1.62,1.62,0,0,0,.57.11c.76,0,1.09-.51,1.09-1.61v-9.3h1.28v9.49c0,1.63-.77,2.54-2.23,2.54A2.5,2.5,0,0,1,53.54,161Z"/><path class="cls-5" d="M59.21,154.93v-5.81h1.26v5.67c0,1.86.76,2.74,2.45,2.74A2.25,2.25,0,0,0,65.31,155v-5.85h1.17v5.72c0,2.34-1.13,3.77-3.58,3.77S59.21,157.17,59.21,154.93Z"/><path class="cls-5" d="M71.28,149.12H72.5l3.6,9.32H74.73l-.81-2.19H69.77l-.8,2.19H67.71Zm2.24,6.07-1.1-3c-.3-.78-.42-1.22-.56-1.61h0c-.13.42-.28.9-.55,1.61l-1.12,3Z"/><path class="cls-5" d="M77.64,149.12h1.24l4.2,6a15.93,15.93,0,0,1,.89,1.41h0a11.71,11.71,0,0,1-.06-1.3v-6.13H85.1v9.32H83.94l-4.41-6.36c-.32-.46-.61-1-.76-1.24h0a9.73,9.73,0,0,1,.06,1.06v6.54H77.64Z"/><path class="cls-5" d="M90.75,149.12h2.32c3.67,0,5.29,1.86,5.29,4.55s-1.64,4.77-5.36,4.77H90.75Zm2.36,8.29c2.57,0,3.92-1.28,3.92-3.71s-1.28-3.55-4-3.55H92v7.26Z"/><path class="cls-5" d="M100.33,149.12h4.92v1.06h-3.66V153h3.21v1.05h-3.21v3.33h3.75v1.06h-5Z"/><path class="cls-5" d="M107.46,149.12h1.26v8.27h3.64v1.05h-4.9Z"/><path class="cls-5" d="M116.51,157.66l.62-.9a3,3,0,0,0,2.11.8,1.65,1.65,0,0,0,1.83-1.48c0-1.07-1.06-1.5-2.13-2s-2.15-1.19-2.15-2.68a2.53,2.53,0,0,1,2.78-2.42,3.91,3.91,0,0,1,2.5.75l-.58.93a3.12,3.12,0,0,0-1.91-.63c-.9,0-1.55.5-1.55,1.31s.75,1.29,1.69,1.73c1.23.59,2.61,1.22,2.61,3,0,1.51-1.25,2.56-3.11,2.56A3.92,3.92,0,0,1,116.51,157.66Z"/><path class="cls-5" d="M124.12,154.93v-5.81h1.26v5.67c0,1.86.75,2.74,2.45,2.74a2.25,2.25,0,0,0,2.38-2.56v-5.85h1.18v5.72c0,2.34-1.14,3.77-3.59,3.77S124.12,157.17,124.12,154.93Z"/><path class="cls-5" d="M133.92,149.12h2.66c2,0,3.15.91,3.15,2.52a2.42,2.42,0,0,1-2.52,2.45v0a5.27,5.27,0,0,1,1,1.19l2.21,3.13H139l-1.85-2.64c-1-1.46-1.18-1.57-1.78-1.57h-.14v4.21h-1.27Zm2.6,4.11c1.33,0,1.93-.56,1.93-1.55s-.64-1.53-2-1.53h-1.25v3.08Z"/></g></svg>