<svg xmlns="http://www.w3.org/2000/svg" xmlns:xlink="http://www.w3.org/1999/xlink" viewBox="0 0 396 234"><defs><style>.cls-1{fill:none;}.cls-1,.cls-2{stroke:#f26631;stroke-miterlimit:10;}.cls-2{fill:#82cec0;}.cls-3{clip-path:url(#clip-path);}.cls-4{fill:#cb5;}.cls-5{fill:#f15e22;}.cls-6{fill:#f26631;}.cls-7{clip-path:url(#clip-path-2);}.cls-8{fill:#fff;}</style><clipPath id="clip-path"><path class="cls-1" d="M102.26,202.94c-32.55,0-74.93-113.66-67-144,5.47-21,45.44-37.5,68.18-37.5,20,0,55.4,12.87,66.19,31.42C183.46,76.66,140.47,202.94,102.26,202.94Z"/></clipPath><clipPath id="clip-path-2"><path class="cls-1" d="M292.12,202.94c-32.55,0-74.93-113.66-67-144,5.47-21,45.44-37.5,68.17-37.5,20,0,55.4,12.87,66.2,31.42C373.33,76.66,330.34,202.94,292.12,202.94Z"/></clipPath></defs><title>casa_almendra_logo</title><g id="Badge"><path class="cls-2" d="M102.26,202.94c-32.55,0-74.93-113.66-67-144,5.47-21,45.44-37.5,68.18-37.5,20,0,55.4,12.87,66.19,31.42C183.46,76.66,140.47,202.94,102.26,202.94Z"/><g class="cls-3"><circle class="cls-4" cx="54.58" cy="25.3" r="38.79"/></g><path class="cls-1" d="M102.26,202.94c-32.55,0-74.93-113.66-67-144,5.47-21,45.44-37.5,68.18-37.5,20,0,55.4,12.87,66.19,31.42C183.46,76.66,140.47,202.94,102.26,202.94Z"/><path class="cls-5" d="M107.56,110C109,93.24,95,57.8,92.86,54.67c-.36-.53-3.6,0-3.37-1.09-.71,0-2.63-.35-2.34-1.49-1.16-.42-4,.59-4.07,1.94-.29-.71,0-1.6,0-2.32-.93.39-.25,1.76-.31,2.49-1.7.38-2,1.94-2,3.5-.49-.79-.33-1.12-.42-2-.56.46-.7,2-.76,2.76-.11,1.22.21,2.41.14,3.63-1,.1-1.46-1.77-1.63-2.49-.52-2.12-.82-5.43.61-7.28,1.79-2.32,5.59-5.1,8.7-4.92a6.59,6.59,0,0,0-2.77-.55c-1.81-.09-4.21-.1-5.75.85.87-.25,1-1.18,1-2a3.94,3.94,0,0,1-2,2.06c-.82.31-2.24.42-2.72,1.3.88-.73.52-2.07,1.45-2.71-1.71.37-1.39,1.68-2.14,2.88-.65,1-2.18,1.6-2.69,2.71,0-1.43.16-2.79.16-4.2,0-3.37,2-5.24,5.54-5.24a23.87,23.87,0,0,1,7.37,1.56,3.64,3.64,0,0,0-3.59-2.45c.34-.41,1.24-.48,1.77-.52-1,0-1.87-.15-2.87-.15s-2,.24-3,.14C78.25,40.06,80.4,40,81.83,40a6.5,6.5,0,0,1,3.2.94c0-1.16-.4-2.48-.47-3.67a4.57,4.57,0,0,1,1.65-4,9.19,9.19,0,0,1,5.32-2.11A14.4,14.4,0,0,1,94,31.3c-.47.17-.92,0-1.38.39s-.44.89-.8,1.18c-.7.57-2.32.39-2.5,1.53.4,0,.82,0,1.22,0-1,.11-1.3,1.31-1.67,2-.46.9-1.12,1.6-1,2.69a1.87,1.87,0,0,1,1-1.14,15.07,15.07,0,0,0-.08,2.52A9.14,9.14,0,0,0,89,42.63a.76.76,0,0,0,.69.22,10.73,10.73,0,0,1,.89-4.05c1.06-2.17,2.11-4,4.29-5a8.76,8.76,0,0,1,4.77-.55c2.14.39,3.44,1.72,5,2.82-2.69.69-5.51.47-8.35.47.81-.07,1.49.45,2.38.39-1.08.09-2.56,1.16-3.5,1.76a7.33,7.33,0,0,0-2.63,2.53,4,4,0,0,1,1.74-.86,3.44,3.44,0,0,0-1.53,2c-.18.64-.27,1.88-.63,2.26a57.63,57.63,0,0,1,5.53-3.95c1.57-.92,3.71-1.88,5.58-1.68A9.56,9.56,0,0,1,107.72,41a6.44,6.44,0,0,1,1.72,3.89,10.3,10.3,0,0,1-1.33,5.2c-.14-1.74-1.54-3.08-2.21-4.6a4.56,4.56,0,0,0-3-2.21,5,5,0,0,1,.7,2,17.89,17.89,0,0,0-3.32-.63c-1,0-2.65-.23-3.49.24.53.34,1,.83,1.65.78-1.34.45-3.14,1-3.84,2.42a1.18,1.18,0,0,1,.94,1.45c-.11.79-1.56.55-1.17,1.14,3.29,4.92,14.78,25.89,18.07,60.54Z"/><path class="cls-5" d="M97.08,110.72c.39-12.51,9.76-37,12.91-40.12.62-.62-1.21-2.71-.08-3.29a3.17,3.17,0,0,0-2.74-2.19,2.27,2.27,0,0,0,1.25-.94c-1.32.49-3.2-.06-4.54-.15a1.78,1.78,0,0,1,.79-1.18,3.77,3.77,0,0,0-2.51,1.1c-.71.69-.31,1.51-.31,2.42-.23-.08-.46-.31-.7-.39.07-1-.42-1.88.09-2.82a4.76,4.76,0,0,1,2.82-2,7.09,7.09,0,0,1,3.89-.33c1.14.27,1.55,1,2.29,1.82.37.41,1.13,1.74,1.47,1.82a3.19,3.19,0,0,0-1-2.66c0-.41.29-.66.39-1-.76,0-1-.56-1.42-1A2.94,2.94,0,0,0,107.8,59a.86.86,0,0,1,.7-1.09c-2.14,0-4.36-.37-6.34.39,2-1.23,4.53-2.33,7-1.88a5.83,5.83,0,0,1,2.54,1.25,8.35,8.35,0,0,1,.81,1.07c.27.32.7.6,1,1a5,5,0,0,1,.58,2.94,4.62,4.62,0,0,0,.24-2.74c1-.41-.51-2.69-.84-3.3-.66-1.22-1.38-1.21-2.45-1.78,2.27.15,4.94-.69,6,1.8a5.38,5.38,0,0,1,.16,4.37c1.28-.24,2.19-1,3.6-.86.56.06,1.85.31,2,.94-1.28.11-2-.25-3.13.53a3.58,3.58,0,0,0-1.49,1.82,8.91,8.91,0,0,1,7,.23A4.15,4.15,0,0,1,126.76,65a2.88,2.88,0,0,1,.67,2.27,5.46,5.46,0,0,1-.39,2.35c-.06-.93-1-1.46-1.72-1.8a2.37,2.37,0,0,0-1.41-2.19,3.61,3.61,0,0,1,.55,1.56,5.05,5.05,0,0,0-2.19-.31,2,2,0,0,0-1.41-1.64c.3.13.41.49.55.78-1.41,0-3.42-.42-4.54.47a11.5,11.5,0,0,1,4.64,2.71c1.1,1.18,1.42,3.85,1.09,5.44a5.71,5.71,0,0,1-1,2,8.18,8.18,0,0,1-.23-3.83,2.13,2.13,0,0,1-.63.54,2.69,2.69,0,0,0-1.33-2c0-.58-.11-1.09-.15-1.64a2.56,2.56,0,0,1-.71,1.56A2.54,2.54,0,0,0,116,70c.2,2-3.74,1.2-4.46,2.35-2,3.13-11.34,27-10.56,38.4"/><path class="cls-5" d="M172.1,109.54H33.4c-4.17,0-4.69,4.9,0,4.9H47.28c-.34,2.66-6.57,3.67-5.55,5,1.56,2.1,10.59.61,12.67-1.26a6.27,6.27,0,0,0,1.91-4.06H169.67c3.3,0,10.59-2,10.07-3.92S175.75,108.42,172.1,109.54Z"/><path class="cls-6" d="M39.5,121.54c1.09.91,2.73,2.26,2.73,4.62a16.67,16.67,0,0,1-2.37,8,2.76,2.76,0,0,1-2.07-2.55c0-2.37,1.16-4.92,1.16-6.45a.51.51,0,0,0-.25-.47c-2.19,1.09-5.39,9.65-5.39,14.75,0,3.46,1.2,4.55,2.84,4.55a6,6,0,0,0,4.19-1.93c.14-.15.22-.18.29-.18a.69.69,0,0,1,.62.73c-.29,1.31-2.55,3.93-5.1,3.93-1.75,0-2.3-1.2-2.84-1.53-1.82-1.09-3.17-3.2-3.17-7,0-4,2.18-17.12,5.46-18.21C37.06,119.79,38,120.26,39.5,121.54Z"/><path class="cls-6" d="M49.83,130.72c1.09,0,3.17.47,3.82,1.64A37.8,37.8,0,0,0,51.72,142c0,1.09.18,1.82.73,1.82.29,0,.58-.29.84-.8,1.27-2.55,2.22-8.45,2.62-10.86.14-.25.8-.07.84.29-.15,1.28-1,8.09-2.44,11-.59,1.17-1.31,2-2.19,2-2,0-2.73-1.42-3.17-3.46,0-.08-.07-.08-.11,0-.36,1.49-1.27,4-2.73,4a3.43,3.43,0,0,1-1.64-.43c-1.67-.84-2-2.66-2-4.56,0-4.66,1.89-11,4.37-11a3.68,3.68,0,0,1,2.91,1.45Zm-1.53,1.09c-1.64,0-2.84,5.94-2.84,9.65,0,1.64.36,2.73.83,2.84,1.82-.65,3-8.56,3.28-11.47A1.5,1.5,0,0,0,48.3,131.81Z"/><path class="cls-6" d="M57.48,130.17a1.51,1.51,0,0,1,1.27-.73c1.46,0,3.36,1.09,3.54,2a3.34,3.34,0,0,0-1.13,2.74c0,3.75,2.22,5.39,2.22,8.19,0,2.55-2.55,3.53-4,3.53a4.06,4.06,0,0,1-4.08-2.58.41.41,0,0,1,.55-.37,2.68,2.68,0,0,0,2.37,1.61,1.69,1.69,0,0,0,1.71-1.64c0-2.44-1.89-3.83-2.37-8.2-.25-.54-.76-.36-.91-.91A10.8,10.8,0,0,1,57.48,130.17Z"/><path class="cls-6" d="M75,133.08a31.55,31.55,0,0,0-1.86,8.56c0,1.28.25,2.66,1.49,2.66s1.82-1.2,1.93-1.2a.4.4,0,0,1,.37.51,4.13,4.13,0,0,1-3.57,2c-2.11,0-3-1.64-3.46-3.28,0,0-.08-.11-.11,0-.62,2.23-1.53,3.5-2.44,3.5A3.74,3.74,0,0,1,65,144.74c-.91-.91-1.09-2.19-1.09-4,0-3.09,1.53-10.92,4.91-10.92a3.05,3.05,0,0,1,2.92,1.63C73.18,131.52,75,132.17,75,133.08Zm-5.21-1.71c-1.35,0-2.81,5-2.81,9,0,2,.19,3.28.91,3.46,1.28-.37,2.74-7,3.17-11.29C70.81,131.92,70.33,131.37,69.79,131.37Z"/><path class="cls-6" d="M89.12,139.68a26,26,0,0,0-6.26,1.89c-.47,1.82-.8,3.5-1.06,5.06-.62.44-2-.43-2.26-1.16,1.83-7.47,5.83-16.58,7.65-24.84a1.23,1.23,0,0,1,1.1-.48,4.65,4.65,0,0,1,2.36.73c.33.18,1.1.18,1.28.73a11.37,11.37,0,0,0-.37,3.1,86.74,86.74,0,0,0,2.92,20.94,6.22,6.22,0,0,1-2.3.55c-.62,0-1.89-.26-2.07-1C89.78,143.72,89.45,141.83,89.12,139.68Zm-1.49-12.24c0-.15-.11-.11-.14,0-1.39,3.57-2.66,7.21-3.79,11a21.1,21.1,0,0,0,5.06-1.31C88.29,134,87.92,130.72,87.63,127.44Z"/><path class="cls-6" d="M97.38,141.86c.18,1.6.73,2.7,1.71,2.7.48,0,1.21-.4,1.75-1.5,1.09-2.18,2.08-5.86,2.84-10.81a.51.51,0,0,1,.8.29c-.69,5.13-1.45,8.7-2.55,10.89-.87,1.75-2,2.58-3.42,2.58-3.6,0-3.86-4-3.86-7.46a64.86,64.86,0,0,1,2.44-16.21c.22-.73.66-1.46,1.38-1.46a4,4,0,0,1,2.63.91,2.25,2.25,0,0,1,1.82,1.28,7.79,7.79,0,0,1,.22,2C103.14,129.37,100.92,136.11,97.38,141.86Zm-.07-1.71a37,37,0,0,0,4.15-14.53,2.61,2.61,0,0,0-.36-1.64C100.19,124.34,97.46,134.18,97.31,140.15Z"/><path class="cls-6" d="M107.74,141.17c.8-3.72,2.11-9.18,2.92-9.54,1.31-.59,3.46.58,3.46,1.27s-.37,3.28-.55,4.37a.09.09,0,0,0,.14.07c.84-3.53,2.41-6.81,3.14-7.35,1.27-.18,3.28.54,3.82,1.64,0,.43-2.11,5.82-2.11,9.83,0,2,.55,2.84,1.57,2.84s1.71-1.13,1.78-1.13a.4.4,0,0,1,.36.55,4.5,4.5,0,0,1-3.78,1.93c-2.55,0-3.1-2.19-3.1-5.28a35.75,35.75,0,0,1,1-6.92.14.14,0,0,0-.11,0c-.07,0-.15,0-.29.33a32.14,32.14,0,0,0-2.73,11.91c-.92.55-2.92-.18-3.1-1.27.55-4.19,1-9.11,1-10.39a.15.15,0,0,0-.11,0c-.11,0-.18.11-.29.4A56.25,56.25,0,0,0,107.92,146a1.63,1.63,0,0,1-.72.19,3.69,3.69,0,0,1-2.19-.91c-.15-.15-.18-.37-.18-.91s.36-5.47.65-8.2a2.1,2.1,0,0,1-1-.73c.22-2,.58-4.92.94-5.1.73-.36,3.17-.18,3.54.73a74.75,74.75,0,0,0-1.31,10C107.6,141.21,107.71,141.24,107.74,141.17Z"/><path class="cls-6" d="M124.79,142.37c.25,1.46.8,2.19,1.53,2.19.91,0,1.71-.95,2.36-2.26,1.53-3.06,2.19-8.31,2.55-10.31.22-.11.77-.07.81.37-.19,1.74-.81,7.46-2.44,10.74-.88,1.75-2,2.91-3.57,2.91a3.71,3.71,0,0,1-3.36-2.18,10.31,10.31,0,0,1-.91-4.19c0-4.74,1.1-10,2.55-10a3.46,3.46,0,0,1,2.63,1.46c1.2.47,2.47,1.2,2.47,2.73C129.41,135.82,127.12,139.93,124.79,142.37Zm0-1.35a13,13,0,0,0,2.66-7.1c0-.54-.18-1.09-.47-1.09C126.14,132.83,124.75,136.73,124.75,141Z"/><path class="cls-6" d="M135.29,141.17c.73-3.79,2.52-9.91,3.32-10.27,1.31,0,3.31.84,3.79,2.11,0,.44-1.64,4.44-1.64,8.27,0,1.64.36,2.48,1.27,2.48a2.49,2.49,0,0,0,1.82-1.13.4.4,0,0,1,.37.54,3.85,3.85,0,0,1-3.28,1.93c-1.93,0-3.28-1.09-3.28-4.55a29,29,0,0,1,.77-5.46.14.14,0,0,0-.11,0c-.08,0-.22,0-.33.33a41.57,41.57,0,0,0-2.51,10.38,2.24,2.24,0,0,1-.51.07,3.91,3.91,0,0,1-2.41-.91c-.14-.14-.18-.36-.18-.91s.25-5.1.55-7.83a2.34,2.34,0,0,1-1-.73c.26-2,.69-4.73,1.17-5.35a4.54,4.54,0,0,1,1.06-.11,3.24,3.24,0,0,1,2.22.69,99.43,99.43,0,0,0-1.24,10.45S135.22,141.24,135.29,141.17Z"/><path class="cls-6" d="M155,142.55c1.21-2.36,1.9-7.54,2.26-9.79,0-.19.07-.3.22-.3s.58.11.58.44c-.11,1.39-.73,7.54-2.18,10.45-.66,1.28-1.46,2.12-2.44,2.12-1.93,0-2.66-1.64-2.92-3.61,0-.07-.07-.07-.11,0-.43,1.82-1.45,4.18-2.8,4.18-2.91,0-4-2.73-4-6,0-4.73,1.9-10.38,4.56-10.38a3.4,3.4,0,0,1,3.16,1.82,55,55,0,0,0,.73-8.56,18.24,18.24,0,0,0-.11-2.18,2.2,2.2,0,0,1,1-.18c1.28,0,3.46.76,3.46,1.82,0,1.64-3,13.48-3,18.94,0,1.27.29,2.11.66,2.11S154.74,143.14,155,142.55Zm-3.93-9.17c-.11-1.21-.77-2-1.38-2-2,0-3,5.17-3,9.11,0,2.07.25,3.71.73,4.08C148.91,144.12,150.37,138.91,151.1,133.38Z"/><path class="cls-6" d="M159.61,129.26a6.25,6.25,0,0,0-.4,2.11,2.1,2.1,0,0,0,0,.44,3.08,3.08,0,0,0,1.89-1.46c1.46,0,3.83.73,4.19,2.19a27.82,27.82,0,0,0-2.18,9.1c0,1.57.43,2.55,1.63,2.55a3.21,3.21,0,0,0,2.44-1.35.42.42,0,0,1,.44.55,5.44,5.44,0,0,1-4.15,2.26c-2.84,0-3.53-2.37-3.53-5.46a33,33,0,0,1,1.16-7.29,3.61,3.61,0,0,1-1.75.48,2.16,2.16,0,0,1-2.07-1.1,3.43,3.43,0,0,1-.37-1.56c0-1.83.48-2.37.8-2.37A2.58,2.58,0,0,1,159.61,129.26Z"/><path class="cls-6" d="M177.42,133.08a32,32,0,0,0-1.85,8.56c0,1.28.25,2.66,1.49,2.66s1.82-1.2,1.93-1.2a.4.4,0,0,1,.36.51,4.09,4.09,0,0,1-3.56,2c-2.12,0-3-1.64-3.46-3.28,0,0-.08-.11-.11,0-.62,2.23-1.53,3.5-2.44,3.5a3.74,3.74,0,0,1-2.37-1.09c-.91-.91-1.09-2.19-1.09-4,0-3.09,1.52-10.92,4.91-10.92a3.05,3.05,0,0,1,2.92,1.63C175.6,131.52,177.42,132.17,177.42,133.08Zm-5.2-1.71c-1.35,0-2.81,5-2.81,9,0,2,.18,3.28.91,3.46,1.28-.37,2.73-7,3.17-11.29C173.24,131.92,172.76,131.37,172.22,131.37Z"/><path class="cls-2" d="M292.12,202.94c-32.55,0-74.93-113.66-67-144,5.47-21,45.44-37.5,68.17-37.5,20,0,55.4,12.87,66.2,31.42C373.33,76.66,330.34,202.94,292.12,202.94Z"/><g class="cls-7"><circle class="cls-4" cx="244.44" cy="25.3" r="38.79"/></g><path class="cls-1" d="M292.12,202.94c-32.55,0-74.93-113.66-67-144,5.47-21,45.44-37.5,68.17-37.5,20,0,55.4,12.87,66.2,31.42C373.33,76.66,330.34,202.94,292.12,202.94Z"/><path class="cls-5" d="M297.42,110c1.41-16.74-12.59-52.18-14.7-55.31-.36-.53-3.6,0-3.37-1.09-.71,0-2.63-.35-2.34-1.49-1.16-.42-4,.59-4.07,1.94-.28-.71.05-1.6,0-2.32-.93.39-.25,1.76-.31,2.49-1.71.38-2.05,1.94-2,3.5-.49-.79-.32-1.12-.41-2-.56.46-.71,2-.77,2.76-.11,1.22.21,2.41.15,3.63-1,.1-1.46-1.77-1.64-2.49-.52-2.12-.81-5.43.61-7.28,1.8-2.32,5.59-5.1,8.7-4.92a6.59,6.59,0,0,0-2.77-.55c-1.81-.09-4.21-.1-5.74.85.86-.25,1-1.18,1-2a3.92,3.92,0,0,1-2,2.06c-.82.31-2.25.42-2.73,1.3.88-.73.53-2.07,1.45-2.71-1.71.37-1.39,1.68-2.14,2.88-.64,1-2.17,1.6-2.68,2.71,0-1.43.16-2.79.16-4.2,0-3.37,2-5.24,5.53-5.24a23.87,23.87,0,0,1,7.37,1.56,3.62,3.62,0,0,0-3.59-2.45c.34-.41,1.25-.48,1.77-.52-1,0-1.87-.15-2.87-.15s-2,.24-3,.14c1.09-1.07,3.24-1.17,4.67-1.16a6.54,6.54,0,0,1,3.21.94c0-1.16-.41-2.48-.47-3.67a4.53,4.53,0,0,1,1.64-4,9.22,9.22,0,0,1,5.32-2.11,14.51,14.51,0,0,1,2.5.17c-.48.17-.93,0-1.39.39s-.44.89-.8,1.18c-.69.57-2.32.39-2.49,1.53.4,0,.81,0,1.22,0-1,.11-1.31,1.31-1.68,2-.46.9-1.12,1.6-1,2.69a1.91,1.91,0,0,1,1-1.14,14.07,14.07,0,0,0-.09,2.52,8.6,8.6,0,0,0,.26,2.09.75.75,0,0,0,.69.22,10.36,10.36,0,0,1,.89-4.05c1-2.17,2.11-4,4.28-5a8.76,8.76,0,0,1,4.77-.55c2.14.39,3.45,1.72,5,2.82-2.69.69-5.5.47-8.35.47.82-.07,1.49.45,2.38.39-1.08.09-2.56,1.16-3.5,1.76a7.23,7.23,0,0,0-2.62,2.53,3.9,3.9,0,0,1,1.74-.86,3.45,3.45,0,0,0-1.54,2,7.28,7.28,0,0,1-.63,2.26,57.77,57.77,0,0,1,5.54-3.95c1.57-.92,3.71-1.88,5.57-1.68A9.56,9.56,0,0,1,297.58,41a6.38,6.38,0,0,1,1.72,3.89,10.3,10.3,0,0,1-1.33,5.2c-.13-1.74-1.53-3.08-2.21-4.6a4.56,4.56,0,0,0-2.95-2.21,5,5,0,0,1,.7,2,17.89,17.89,0,0,0-3.32-.63c-1,0-2.65-.23-3.48.24.52.34,1,.83,1.64.78-1.34.45-3.14,1-3.83,2.42a1.2,1.2,0,0,1,.94,1.45c-.12.79-1.57.55-1.18,1.14,3.29,4.92,14.79,25.89,18.07,60.54Z"/><path class="cls-5" d="M286.94,110.72c.39-12.51,9.77-37,12.91-40.12.62-.62-1.21-2.71-.08-3.29A3.17,3.17,0,0,0,297,65.12a2.24,2.24,0,0,0,1.25-.94c-1.32.49-3.2-.06-4.53-.15a1.73,1.73,0,0,1,.78-1.18A3.8,3.8,0,0,0,292,64c-.71.69-.31,1.51-.31,2.42-.23-.08-.46-.31-.7-.39.07-1-.42-1.88.1-2.82a4.74,4.74,0,0,1,2.81-2,7.12,7.12,0,0,1,3.9-.33c1.13.27,1.54,1,2.28,1.82.37.41,1.13,1.74,1.47,1.82a3.19,3.19,0,0,0-1-2.66c0-.41.29-.66.39-1-.76,0-.95-.56-1.42-1a2.9,2.9,0,0,0-1.86-.79.86.86,0,0,1,.7-1.09c-2.14,0-4.36-.37-6.33.39,2-1.23,4.52-2.33,7-1.88a5.83,5.83,0,0,1,2.54,1.25,7.52,7.52,0,0,1,.81,1.07,13.42,13.42,0,0,1,1,1,5,5,0,0,1,.59,2.94,4.61,4.61,0,0,0,.23-2.74c1-.41-.51-2.69-.84-3.3-.65-1.22-1.37-1.21-2.44-1.78,2.26.15,4.94-.69,6,1.8a5.46,5.46,0,0,1,.16,4.37c1.27-.24,2.18-1,3.59-.86.56.06,1.85.31,2,.94-1.28.11-2-.25-3.13.53A3.69,3.69,0,0,0,308,63.48a8.93,8.93,0,0,1,7,.23A4.15,4.15,0,0,1,316.63,65a2.91,2.91,0,0,1,.66,2.27,5.46,5.46,0,0,1-.39,2.35c0-.93-1-1.46-1.72-1.8a2.36,2.36,0,0,0-1.41-2.19,3.61,3.61,0,0,1,.55,1.56,5,5,0,0,0-2.19-.31,2,2,0,0,0-1.41-1.64c.3.13.41.49.55.78-1.41,0-3.41-.42-4.54.47a11.54,11.54,0,0,1,4.65,2.71c1.09,1.18,1.41,3.85,1.08,5.44a5.86,5.86,0,0,1-1,2,8.18,8.18,0,0,1-.24-3.83,2.1,2.1,0,0,1-.62.54,2.74,2.74,0,0,0-1.33-2c0-.58-.11-1.09-.16-1.64a2.51,2.51,0,0,1-.71,1.56,2.54,2.54,0,0,0-2.5-1.33c.2,2-3.74,1.2-4.46,2.35-2,3.13-11.34,27-10.56,38.4"/><path class="cls-5" d="M362,109.54H223.26c-4.17,0-4.69,4.9,0,4.9h13.89c-.35,2.66-6.58,3.67-5.56,5,1.56,2.1,10.59.61,12.68-1.26a6.3,6.3,0,0,0,1.9-4.06H359.54c3.29,0,10.59-2,10.07-3.92S365.61,108.42,362,109.54Z"/><path class="cls-6" d="M281.13,118.14a4.78,4.78,0,0,1,2.17,3.69,13.41,13.41,0,0,1-1.88,6.38,2.2,2.2,0,0,1-1.66-2c0-1.89.93-3.92.93-5.14a.42.42,0,0,0-.2-.37c-1.74.87-4.29,7.68-4.29,11.74,0,2.76.95,3.63,2.26,3.63a4.74,4.74,0,0,0,3.33-1.54c.12-.11.18-.14.24-.14a.54.54,0,0,1,.49.58,4.86,4.86,0,0,1-4.06,3.13c-1.39,0-1.83-1-2.26-1.22-1.45-.87-2.53-2.55-2.53-5.6s1.74-13.63,4.35-14.5A4.44,4.44,0,0,1,281.13,118.14Z"/><path class="cls-6" d="M289.4,125.45c.87,0,2.52.38,3.05,1.31a29.68,29.68,0,0,0-1.54,7.68c0,.87.14,1.46.58,1.46.23,0,.46-.24.67-.64,1-2,1.76-6.73,2.08-8.65.12-.2.64-.06.67.23-.12,1-.78,6.44-1.94,8.76-.47.93-1.05,1.6-1.74,1.6-1.6,0-2.18-1.13-2.53-2.76,0-.05-.05-.05-.08,0-.29,1.18-1,3.22-2.18,3.22a2.68,2.68,0,0,1-1.3-.35c-1.34-.67-1.6-2.12-1.6-3.63,0-3.71,1.51-8.79,3.48-8.79a3,3,0,0,1,2.32,1.16Zm-1.22.87c-1.3,0-2.26,4.73-2.26,7.69,0,1.3.29,2.18.67,2.26,1.45-.52,2.37-6.81,2.61-9.13A1.22,1.22,0,0,0,288.18,126.32Z"/><path class="cls-6" d="M295.52,125a1.23,1.23,0,0,1,1-.58c1.16,0,2.67.87,2.81,1.59a2.65,2.65,0,0,0-.9,2.18c0,3,1.77,4.29,1.77,6.52,0,2-2,2.82-3.19,2.82a3.24,3.24,0,0,1-3.25-2.06.32.32,0,0,1,.44-.29,2.14,2.14,0,0,0,1.88,1.28,1.36,1.36,0,0,0,1.37-1.31c0-1.94-1.51-3-1.89-6.53-.2-.43-.61-.29-.72-.72A8.7,8.7,0,0,1,295.52,125Z"/><path class="cls-6" d="M309.51,127.34a25,25,0,0,0-1.48,6.81c0,1,.2,2.12,1.19,2.12s1.45-1,1.54-1a.33.33,0,0,1,.29.41,3.3,3.3,0,0,1-2.85,1.63c-1.68,0-2.41-1.31-2.75-2.62,0,0-.06-.08-.09,0-.49,1.77-1.22,2.78-1.94,2.78a3,3,0,0,1-1.89-.87c-.72-.72-.87-1.74-.87-3.19,0-2.47,1.22-8.7,3.92-8.7a2.43,2.43,0,0,1,2.32,1.3C308.06,126.09,309.51,126.61,309.51,127.34ZM305.36,126c-1.07,0-2.23,4-2.23,7.17,0,1.59.14,2.61.72,2.76,1-.3,2.18-5.57,2.53-9C306.17,126.41,305.79,126,305.36,126Z"/><path class="cls-6" d="M261.73,154.59a21,21,0,0,0-5,1.51c-.37,1.45-.64,2.78-.84,4-.49.35-1.57-.35-1.8-.93,1.45-5.95,4.64-13.2,6.09-19.78a1,1,0,0,1,.87-.38,3.71,3.71,0,0,1,1.89.58c.26.15.87.15,1,.58a9.48,9.48,0,0,0-.29,2.47A68.94,68.94,0,0,0,266,159.35a4.93,4.93,0,0,1-1.83.43c-.5,0-1.51-.2-1.66-.78C262.25,157.81,262,156.3,261.73,154.59Zm-1.19-9.75c0-.11-.08-.09-.11,0-1.11,2.84-2.12,5.75-3,8.79a17.1,17.1,0,0,0,4-1C261.06,150.06,260.77,147.45,260.54,144.84Z"/><path class="cls-6" d="M268.36,156.33c.14,1.27.58,2.15,1.36,2.15.38,0,1-.32,1.39-1.19a31.4,31.4,0,0,0,2.26-8.62.41.41,0,0,1,.64.23c-.55,4.09-1.16,6.94-2,8.68-.69,1.39-1.56,2.06-2.72,2.06-2.88,0-3.08-3.2-3.08-5.95a51.58,51.58,0,0,1,1.94-12.91c.18-.58.53-1.16,1.11-1.16a3.15,3.15,0,0,1,2.08.73,1.78,1.78,0,0,1,1.46,1,6.41,6.41,0,0,1,.17,1.6C272.94,146.38,271.17,151.75,268.36,156.33ZM268.3,155a29.45,29.45,0,0,0,3.3-11.58,2,2,0,0,0-.29-1.3C270.59,142.38,268.41,150.21,268.3,155Z"/><path class="cls-6" d="M276.63,155.78c.64-3,1.68-7.31,2.32-7.6,1.05-.47,2.76.46,2.76,1a34.12,34.12,0,0,1-.44,3.48c0,.06.06.09.12.06.66-2.81,1.91-5.42,2.49-5.86a3.39,3.39,0,0,1,3.05,1.31c0,.35-1.68,4.64-1.68,7.83,0,1.59.43,2.26,1.24,2.26s1.37-.9,1.42-.9a.32.32,0,0,1,.29.44,3.59,3.59,0,0,1-3,1.54c-2,0-2.47-1.75-2.47-4.21a27.91,27.91,0,0,1,.76-5.51.11.11,0,0,0-.09,0c-.06,0-.12,0-.23.26a25.69,25.69,0,0,0-2.18,9.49,1.93,1.93,0,0,1-2.46-1c.43-3.34.81-7.25.81-8.27a.11.11,0,0,0-.09,0c-.09,0-.14.09-.23.32a44.16,44.16,0,0,0-2.23,9.29,1.59,1.59,0,0,1-.58.14,2.91,2.91,0,0,1-1.74-.72c-.12-.12-.15-.29-.15-.73s.29-4.35.52-6.53a1.65,1.65,0,0,1-.84-.58c.18-1.59.47-3.91.76-4.06.58-.29,2.52-.14,2.81.58a62.36,62.36,0,0,0-1.05,8A.06.06,0,0,0,276.63,155.78Z"/><path class="cls-6" d="M290.24,156.73c.2,1.17.64,1.75,1.22,1.75s1.36-.76,1.88-1.8c1.22-2.44,1.74-6.62,2-8.21.17-.09.61-.06.64.29-.15,1.39-.64,5.94-1.94,8.55-.7,1.4-1.63,2.33-2.85,2.33a3,3,0,0,1-2.67-1.74,8.22,8.22,0,0,1-.72-3.34c0-3.77.87-8,2-8a2.76,2.76,0,0,1,2.09,1.16c1,.38,2,1,2,2.18C293.92,151.51,292.09,154.79,290.24,156.73Zm0-1.07a10.39,10.39,0,0,0,2.12-5.65c0-.44-.15-.87-.38-.87C291.31,149.14,290.21,152.24,290.21,155.66Z"/><path class="cls-6" d="M298.63,155.78c.58-3,2-7.89,2.64-8.18,1,0,2.64.66,3,1.68,0,.35-1.3,3.54-1.3,6.58,0,1.31.29,2,1,2,.93,0,1.39-.9,1.45-.9a.32.32,0,0,1,.29.43,3.06,3.06,0,0,1-2.61,1.54c-1.54,0-2.61-.87-2.61-3.63a23.69,23.69,0,0,1,.61-4.35.11.11,0,0,0-.09,0s-.17,0-.26.27a33.36,33.36,0,0,0-2,8.26,1.47,1.47,0,0,1-.4.06,3.17,3.17,0,0,1-1.92-.72c-.12-.12-.14-.29-.14-.73s.2-4.06.43-6.24a1.78,1.78,0,0,1-.78-.58,15,15,0,0,1,.93-4.26,3.8,3.8,0,0,1,.84-.09,2.57,2.57,0,0,1,1.77.55,77.6,77.6,0,0,0-1,8.33S298.57,155.84,298.63,155.78Z"/><path class="cls-6" d="M314.38,156.88c.95-1.89,1.51-6,1.8-7.8,0-.15.05-.24.17-.24s.46.09.46.35c-.08,1.11-.58,6-1.74,8.33-.52,1-1.16,1.68-1.94,1.68-1.54,0-2.12-1.3-2.32-2.87,0-.06-.06-.06-.09,0-.35,1.45-1.16,3.34-2.23,3.34-2.32,0-3.19-2.18-3.19-4.79,0-3.77,1.51-8.27,3.62-8.27a2.71,2.71,0,0,1,2.53,1.45,45.27,45.27,0,0,0,.58-6.81,15.28,15.28,0,0,0-.09-1.74,1.7,1.7,0,0,1,.81-.15c1,0,2.76.61,2.76,1.45,0,1.31-2.41,10.73-2.41,15.08,0,1,.23,1.69.52,1.69S314.14,157.34,314.38,156.88Zm-3.14-7.31c-.08-1-.61-1.6-1.1-1.6-1.59,0-2.38,4.12-2.38,7.26,0,1.65.21,3,.58,3.25C309.5,158.13,310.66,154,311.24,149.57Z"/><path class="cls-6" d="M318.05,146.29a5.1,5.1,0,0,0-.31,1.68,2.58,2.58,0,0,0,0,.35,2.48,2.48,0,0,0,1.51-1.16c1.16,0,3.05.58,3.34,1.74a22,22,0,0,0-1.74,7.25c0,1.25.35,2,1.3,2a2.62,2.62,0,0,0,1.95-1.08c.23-.06.43.23.35.44a4.38,4.38,0,0,1-3.31,1.8c-2.26,0-2.82-1.89-2.82-4.36a26.56,26.56,0,0,1,.93-5.8,2.76,2.76,0,0,1-1.39.38,1.73,1.73,0,0,1-1.65-.87,2.75,2.75,0,0,1-.29-1.25c0-1.45.37-1.88.64-1.88A2.08,2.08,0,0,1,318.05,146.29Z"/><path class="cls-6" d="M332.27,149.34a25,25,0,0,0-1.48,6.81c0,1,.2,2.12,1.19,2.12s1.45-1,1.53-1a.32.32,0,0,1,.29.41,3.26,3.26,0,0,1-2.84,1.63c-1.68,0-2.41-1.31-2.75-2.62,0,0-.06-.08-.09,0-.49,1.77-1.22,2.78-1.94,2.78a3,3,0,0,1-1.89-.87c-.72-.72-.87-1.74-.87-3.19,0-2.47,1.22-8.7,3.92-8.7a2.43,2.43,0,0,1,2.32,1.3C330.82,148.09,332.27,148.61,332.27,149.34ZM328.12,148c-1.07,0-2.23,4-2.23,7.17,0,1.59.14,2.61.72,2.76,1-.3,2.18-5.57,2.52-9C328.93,148.41,328.55,148,328.12,148Z"/><path class="cls-8" d="M72.91,159.55l.42-.53a3.34,3.34,0,0,0,2.24.82,1.92,1.92,0,0,0,2.11-1.79c0-1.2-1.11-1.75-2.23-2.32s-2.21-1.17-2.21-2.62a2.32,2.32,0,0,1,2.59-2.26,3.84,3.84,0,0,1,2.36.73l-.37.56a3.39,3.39,0,0,0-2-.64A1.62,1.62,0,0,0,74,153.06c0,1.07.81,1.49,1.84,2,1.2.6,2.62,1.26,2.62,2.94,0,1.45-1.17,2.47-2.92,2.47A3.84,3.84,0,0,1,72.91,159.55Z"/><path class="cls-8" d="M83,151h.79l3.55,9.32h-.81l-1-2.52H81.17l-.94,2.52h-.77Zm2.33,6.14-2-5.23-2,5.23Z"/><path class="cls-8" d="M89.06,151h.75l5.56,8.05V151h.73v9.32h-.71l-5.62-8.11v8.11h-.71Z"/><path class="cls-8" d="M100.53,162.81l.13-.65a1.28,1.28,0,0,0,.49.08c.76,0,1.12-.6,1.12-1.78V151H103v9.59c0,1.49-.64,2.33-1.86,2.33A1.48,1.48,0,0,1,100.53,162.81Z"/><path class="cls-8" d="M105.71,156.83V151h.78v5.74c0,2,.84,3.07,2.73,3.07s2.67-1.18,2.67-3V151h.73v5.79c0,2.27-1.05,3.69-3.43,3.69S105.71,159,105.71,156.83Z"/><path class="cls-8" d="M117.52,151h.78l3.56,9.32h-.81l-1-2.52h-4.43l-.94,2.52H114Zm2.32,6.14-2-5.23-2,5.23Z"/><path class="cls-8" d="M123.55,151h.76l5.56,8.05V151h.73v9.32h-.72l-5.61-8.11v8.11h-.72Z"/><path class="cls-8" d="M80.2,166h2c3.4,0,5.19,1.73,5.19,4.58s-1.77,4.74-5.22,4.74h-2Zm2,8.68c2.77,0,4.37-1.42,4.37-4.08s-1.57-4-4.43-4H81v8Z"/><path class="cls-8" d="M89.54,166h4.58v.65H90.31V170h3.35v.65H90.31v4h3.91v.65H89.54Z"/><path class="cls-8" d="M96.44,166h.77v8.67H101v.65H96.44Z"/><path class="cls-8" d="M105.32,174.55l.42-.53a3.3,3.3,0,0,0,2.24.82,1.91,1.91,0,0,0,2.1-1.79c0-1.2-1.11-1.75-2.23-2.32s-2.21-1.17-2.21-2.62a2.32,2.32,0,0,1,2.59-2.26,3.88,3.88,0,0,1,2.37.73l-.38.56a3.39,3.39,0,0,0-2-.64,1.62,1.62,0,0,0-1.82,1.56c0,1.07.82,1.49,1.84,2,1.2.6,2.62,1.26,2.62,2.94,0,1.45-1.16,2.47-2.92,2.47A3.81,3.81,0,0,1,105.32,174.55Z"/><path class="cls-8" d="M112.81,171.83V166h.77v5.74c0,2,.84,3.07,2.73,3.07s2.67-1.18,2.67-3V166h.73v5.79c0,2.27-1,3.69-3.43,3.69S112.81,174,112.81,171.83Z"/><path class="cls-8" d="M122.42,166h2.2c1.89,0,3,.82,3,2.39s-1.13,2.31-2.76,2.37h-.11a3.73,3.73,0,0,1,.91,1l2.59,3.53h-.92l-2.28-3.13c-.93-1.28-1.1-1.38-1.64-1.38h-.26v4.51h-.77Zm2.18,4.17c1.49,0,2.28-.6,2.28-1.77s-.8-1.75-2.34-1.75h-1.35v3.52Z"/></g></svg>