<svg id="Sun_-_Right" data-name="Sun - Right" xmlns="http://www.w3.org/2000/svg" viewBox="0 0 396 234"><defs><style>.cls-1{fill:#536bb2;}.cls-2{fill:#f26631;}.cls-3{fill:none;stroke:#f26631;stroke-miterlimit:10;stroke-width:3px;}</style></defs><title>casa_almendra_logo</title><path class="cls-1" d="M46.16,106.85H40.91c-7.06,0-12.53,4.24-12.53,13.1s5.47,13.11,12.53,13.11h5.25v12.09H38.6c-13.53,0-23.33-11.37-23.33-25.2s9.8-25.2,23.33-25.2h7.56Z"/><path class="cls-1" d="M53.22,145.15V112c0-10.8,7.13-18.14,17.64-18.14S88.5,101.23,88.5,112v33.12H76V127.58H68.12V116.21H76v-4.75c0-3.75-2-6.2-5.11-6.2s-5.11,2.45-5.11,6.2v33.69Z"/><path class="cls-1" d="M123.42,106.41H110.75c-1.59,0-2.88.58-2.88,2.09,0,4.25,18.79,9.72,18.79,21.53,0,6.48-1.66,15.12-17.79,15.12H95.41V133.49h13c2.88,0,4.68-.87,4.68-2.74,0-5.33-18.07-9.65-18.07-21.74,0-10.52,7.42-14.26,15.26-14.26h13.11Z"/><path class="cls-1" d="M133.21,145.15V112c0-10.8,7.13-18.14,17.64-18.14s17.64,7.34,17.64,18.14v33.12H156V127.58h-7.85V116.21H156v-4.75c0-3.75-2-6.2-5.11-6.2s-5.11,2.45-5.11,6.2v33.69Z"/><path class="cls-1" d="M17.22,205.15V172c0-10.8,7.13-18.14,17.64-18.14S52.5,161.23,52.5,172v33.12H40V187.58H32.12V176.21H40v-4.75c0-3.75-2-6.2-5.11-6.2s-5.11,2.45-5.11,6.2v33.69Z"/><path class="cls-1" d="M88.07,205.15H78.49c-12.17,0-17.93-4.6-17.93-16.27V154.75H73.09v33c0,4.1,1.37,5.33,6.41,5.33h8.57Z"/><path class="cls-1" d="M90.08,205.15l4-40.32c.72-7.34,2.38-10.94,9.87-10.94,4.89,0,8.06,2.88,9,9.21l3.67,24.27H117l3.67-24.27c.94-6.33,4.11-9.21,9-9.21,7.49,0,9.15,3.6,9.87,10.94l4,40.32h-12l-2.23-41h-.15v1.15l-6.19,34.28c-.72,3.89-3.17,6.48-6.27,6.48s-5.54-2.59-6.26-6.48l-6.19-34.28h-.15L102,205.15Z"/><path class="cls-1" d="M177.42,166.41c-11.59,0-13.61,1.3-16.78,8.07h16.78v10.94H160.64c3.31,7.35,5.47,8.07,16.78,8.07v11.66h-7.13c-13.54,0-23-11.23-23-25.2s9.5-25.2,23-25.2h7.13Z"/><path class="cls-1" d="M184.9,205.15V160.8c0-4,3.17-6.91,7.42-6.91s6.77,1.65,8.64,5.32l11.16,22.18h.15V154.75H224.8v43.92c0,4.61-3.46,7.35-6.63,7.35s-5.62-1.51-8.93-7.92l-11.66-22.47h-.15v29.52Z"/><path class="cls-1" d="M248.55,193.06A12.48,12.48,0,0,0,261,180.53c0-9.65-7.06-13.68-15.48-13.68v38.3H233v-50.4h12.74c18.15,0,28.09,11.52,28.09,25.63,0,14.55-10.88,24.77-25.28,24.77Z"/><path class="cls-1" d="M280.73,205.15V172.54c0-12,7.13-18.65,17.93-18.65,9.94,0,16.85,5.47,16.85,15,0,6.27-2.88,9.8-8.57,10.37v.15c4.54,1,9.37,2,9.37,8.35v17.42H303.63V189.89c0-3-2.09-4-7.56-4V174.55c4.47-.07,6.77-1.08,6.77-5,0-2.81-2.45-4-4.46-4-3,0-4.54,1.87-4.54,6.91v32.69Z"/><path class="cls-1" d="M325.23,205.15V172c0-10.8,7.13-18.14,17.64-18.14s17.64,7.34,17.64,18.14v33.12H348V187.58h-7.84V176.21H348v-4.75c0-3.75-2-6.2-5.11-6.2s-5.11,2.45-5.11,6.2v33.69Z"/><path class="cls-2" d="M202.06,117.49a57.14,57.14,0,1,1,114.28,0"/><line class="cls-3" x1="173.28" y1="117.49" x2="361.37" y2="117.49"/><line class="cls-3" x1="173.28" y1="123.08" x2="361.37" y2="123.08"/><line class="cls-3" x1="173.28" y1="128.67" x2="361.37" y2="128.67"/><line class="cls-3" x1="173.28" y1="134.26" x2="361.37" y2="134.26"/><line class="cls-3" x1="173.28" y1="139.85" x2="361.37" y2="139.85"/><line class="cls-3" x1="173.28" y1="145.44" x2="361.37" y2="145.44"/><path class="cls-1" d="M343.68,209.39H23.6c-9.62,0-10.82,8.65,0,8.65H55.65c-.8,4.7-15.17,6.49-12.82,8.9,3.6,3.71,24.43,1.07,29.24-2.22a10.15,10.15,0,0,0,4.41-7.17H338.07c7.62,0,24.44-3.46,23.24-6.92S352.1,207.42,343.68,209.39Z"/></svg>