<svg xmlns="http://www.w3.org/2000/svg" viewBox="0 0 97.2 96.76"><defs><style>.cls-1{fill:#37a7b8;}.cls-2{fill:#164056;}</style></defs><title>Nica</title><g id="Nica"><circle class="cls-1" cx="48.22" cy="48.38" r="45.96"/><path class="cls-2" d="M15.78,48.05a3.07,3.07,0,0,0-1.21-.19c-.68,0-1.34.14-2,.2-.44,0-.86-.07-1.22.2a6.77,6.77,0,0,0-.8.48c-.38.4.64.35.89.37-.18.43-1.88.12-2.28,0s-.29-.25-.28-.61-.35-.53-.59-.77-.45-.57-.77-.64-.48.19-.66.45-.3.17-.54.29S6.14,48,6,48.2a2.31,2.31,0,0,0-.45.75,1,1,0,0,0,.4.82c.17.15.37.24.54.38a2.48,2.48,0,0,0,.62.5,6.25,6.25,0,0,1,2.17,1.72c.29.34.69.6,1,.94s.36.63.63.91a22,22,0,0,0,2.59,1.66c.23.17.54.41.59.71,0,.14-.09.34-.06.43s.29.16.44.23a4.59,4.59,0,0,1,.5.35c.25.15.5.23.74.4s.67.54,1,.78c.15.09.32.17.47.27s.56.2.81.35.39.34.6.48c.54.34,1.42.65,1.65,1.29s.42,1.17.65,1.77a7,7,0,0,0,1.41,2.13c.22.25.31.28.32.62,0,.07,0,.28,0,.33s.19,0,.29.07a2.27,2.27,0,0,1,.52.55c.17.22.43.42.59.63s0,.38.11.6.37.27.58.39a5.34,5.34,0,0,1,1.71,1.37c.23.36.31.64.7.87s.8.4,1.17.66c.54.39,1.47.41,1.44,1.27,0,.33.92.62,1.14.74s.28.32.46.55a4.6,4.6,0,0,0,.68.64c.41.38.91.62,1.34,1a6.43,6.43,0,0,1,1.22,1.28c.25.34.57.6.82.92a3.94,3.94,0,0,1,.44.9c-.51.19.47.46.62.49a2.05,2.05,0,0,1,.93.43,6.49,6.49,0,0,0,1.19-2c.14-.28.11-.33.37-.33a1.13,1.13,0,0,1,.6.17c.35.26.42.61.85.81a6.9,6.9,0,0,0,1.39.47c.3,0,.6-.12.85-.06s.46.35.67.45c.64.3,1.35.63,2,.9s1.58.61,2.38.88a11.9,11.9,0,0,1,1.15.38,5.18,5.18,0,0,0,.86.4c.76.18,1.77-.82,2.39-1.21s1-.76,1.57-1c.27.44.75.47,1.13.71a2,2,0,0,1,.35-.15c.21,0,.1.12.23.22s.47.12.7.24a4.86,4.86,0,0,1,.9.56c.16.15.32.4.5.48.36.16.61-.12.84-.26s.5-.39.68-.17,0,.63.21.89.66.41,1,.6.59.18.7.54-.2.55-.12.87c.18,0,.17.22.32.3a1,1,0,0,0,.46,0c.24,0,.75-.15.76.22h.13c.21-.35.56.25.8.25a1.36,1.36,0,0,0,.78-.51c.6.06.82.83,1.34,1.08a1.24,1.24,0,0,0,.74.18,2.91,2.91,0,0,0,.69-.13c.11-.07.15-.24.25-.32a2.63,2.63,0,0,1,.3-.14,3.08,3.08,0,0,1,.74-.44c.48-.12,1.21,0,1.62-.34.26-.2.11-.46.07-.78a5,5,0,0,0,0-1c-.32-.09-.18-.31-.33-.48s-.43-.13-.61-.28a6.29,6.29,0,0,1-1.19-1.72A17,17,0,0,1,67,77.54a6,6,0,0,1-.25-2.75c.05-.35.31-1.64.89-1.36a6.51,6.51,0,0,0,.43-.64c.18-.33.15-.81.39-1.12s.53-.21.74-.32.24-.41.53-.52c.09.21.3.06.46.09a17.64,17.64,0,0,1-.1-1.92,6.19,6.19,0,0,0-.56-1.46,3,3,0,0,1-.21-.83,10.91,10.91,0,0,1,0-1.4c0-.38-.11-.71-.1-1.08-.81.11-.48,1.42-.51,2,0,.31-.12.53-.12.84s.07.64-.36.52-.39-.31-.48-.56a.89.89,0,0,0-.17-.37c-.06-.07-.29-.2-.32-.26-.15-.36.4-.27.58-.46a2.65,2.65,0,0,0,.42-.86c0-.19,0-.41,0-.6s.19-.37.24-.57,0-.78.32-1a5.87,5.87,0,0,0,.42,1c.1.18.31.36.36.55,0-.83-.08-1.64-.1-2.46,0-1.19.91-2.14,1.06-3.25s1.36-.54,2.06-.84c.5-.21.15-.62.09-1.07a1.42,1.42,0,0,0-.43-.9,3.84,3.84,0,0,1-.39-2.72,15.08,15.08,0,0,0,.31-1.76,4.85,4.85,0,0,1,.18-1.26,1.07,1.07,0,0,0,0-.91c-.08-.21-.09-1-.2-1a23.91,23.91,0,0,1-.62-3.12c0-1.06,0-2.12,0-3.18a12.08,12.08,0,0,1,.09-1.35,4.17,4.17,0,0,1,.45-1.17,7.33,7.33,0,0,0,.16-2.05c.08-.7.24-1.38.36-2.06A3.94,3.94,0,0,1,73.08,34c.15-.32,0-.58.06-.92a4.63,4.63,0,0,1,.64-1.3,1.8,1.8,0,0,1,.59-.69A2.51,2.51,0,0,0,75.28,30a1.91,1.91,0,0,1,.43-.63,5.59,5.59,0,0,0,.64-1.08,5.52,5.52,0,0,0,.91-1.75,4.64,4.64,0,0,0,.07-1,5.64,5.64,0,0,0-.26-1.15c-.08-.31-.3-.54-.26-.89s-.19-.74-.38-1.15a5.76,5.76,0,0,1-.39-1c-.18-.71-.21-1.48-.35-2.19a4,4,0,0,1-.14-.67c0-.41.38-.79.55-1.18a3.67,3.67,0,0,1,.35-.89l.61-.74c.24-.28.35-.15.65-.22s.81-.31.67-.5a12.87,12.87,0,0,0-1.36.23,1.56,1.56,0,0,1-1.25,0c-.38-.17-.77-.32-1.14-.49s-.4-.22-.58.19c-.39.93-1.28-.31-1.78.1-.16.13-.15.41-.22.59s-.23.3-.32.47c-.22.41-.18.52-.68.55s-.26.48-.66.58c-.18,0-.45-.11-.64,0s-.13.33-.39.19c-.12.15,0,.36-.14.48a.2.2,0,0,0-.29,0,.94.94,0,0,1-.41,0c0,.36,0,.28-.28.32a.89.89,0,0,0-.5.16c-.2.13-.32.08-.5.16s-.25.3-.51.37a1.12,1.12,0,0,1-.41,0c-.08,0-.16-.11-.21-.13s-.36-.11-.48.06.1.34-.3.42a1.72,1.72,0,0,1-.68-.07c-.14,0-.14-.07-.28-.06s-.17.14-.3.13a.34.34,0,0,1-.33-.41,1.8,1.8,0,0,0-.4.15c-.12-.15-.37-.73-.68-.38-.13.14.17.6.22.8a2.13,2.13,0,0,1-1.25.27c-.3,0-1.17,0-1-.52-.43.13-.37.62-.35.95,0,.66-.32.41-.73.33-.17,0-.4.05-.52-.11s0-.52-.29-.43c-.13,0-.23.41-.32.51a3.25,3.25,0,0,1-.55.36c-.17.13-.3.33-.49.41s-.53,0-.55.32c-.2-.07-.65-.17-.77-.35s.24-.52-.37-.48a2.81,2.81,0,0,1-.82,0,4.16,4.16,0,0,0-.67-.18c-.27,0-.37-.15-.39-.39-.31,0-.2.68-.55.29-.12-.12-.08-.24-.23-.35s-.36,0-.47-.24.15-.61-.11-.91a9.56,9.56,0,0,0-.85-.83s0,0,0-.05a2.39,2.39,0,0,0-.84.06c-.18.06-.33.21-.52.23s-.25-.12-.4,0,0,.54-.19.72-.85.32-1.14.54-.24.6-.49.84-.3.09-.28.37a.44.44,0,0,0,.26.4c-.12.12-.23.41,0,.46-.06.44-.14.39-.45.54s-.24.35-.49.33S46.77,22,46.6,22a.45.45,0,0,0-.48.37c0,.12.12.32.13.48a.47.47,0,0,1-.16.46c-.22.23-.4.23-.48.53s0,.44,0,.61-.34.33-.43.56-.17.47.17.39c0,.21.1.29.18.46s.08.26.14.38.1,0,.14.09c.16.35-.1.66-.14,1a5.94,5.94,0,0,1-1,0c-.18,0-.35-.17-.54-.18s-.08.09-.28.19-.44,0-.61.1-.17.35-.31.5-.41.26-.51.61a2.15,2.15,0,0,1-.21.8c-.29.41-1,.4-1.36.72s-.32.57-.68.64-.6,0-.64-.19c-.41.17-.56.8-1.06.92-.24.06-.37-.19-.56,0s.07.32-.33.36-1-.11-1,.45a3.47,3.47,0,0,1-.1.72c-.09.3-.1.3.12.53s.27.14.2.35a.49.49,0,0,1-.38.22c-.28,0-.49-.12-.79-.07-.24-.32-.38-.74-.65-1s-.53,0-.87.16c-.23-.66-.85-.45-1.28-.89s-1-.54-.68-1.13c.14-.28.34-.24.22-.58s-.18-.25-.42-.22c-.4,0-1.39.2-1.61.61s0,.88-.71.84c-.12.4.15.53-.25.8-.13.08-.33.11-.4.25s0,.27-.06.37-.52.12-.68.44-.13.44-.28.68c-.27.4-.55,1-1.1,1.06a3.75,3.75,0,0,1-.87.06c-.24,0-.48-.39-.7-.38s-.2.17-.29.19-.23,0-.37-.09-.5-.38-.79-.43a3.27,3.27,0,0,1-2.27.33,2.67,2.67,0,0,0-.63,0c-.3.06-.27.19-.38.4a2.17,2.17,0,0,0-.26.53c0,.2,0,.34,0,.52s-.31.34-.22.61a.62.62,0,0,0,.56.36c.21.58-.23.37-.28.87,0,.25.07.11.16.29a1.21,1.21,0,0,1,.1.5,12,12,0,0,0,.39,1.42.85.85,0,0,1,0,.39c0,.12-.17.18-.2.28-.12.42.39.68.47,1.07a.93.93,0,0,1-.26,1c-.15.13-.37.38-.59.37-.4,0-.66-.65-1-.67-.16,0-.26.11-.39.19s-.47.17-.68.32c-.48.35-.17.57-.23,1.06-.47.16-.11.54-.08.81s-.21.37-.26.54,0,.17.07.4c.11.41-.13.47-.38.77s-.07.26-.18.43-.34.2-.51.29c-.32.17-.57.48-1,.29C15.68,47.92,15.76,48,15.78,48.05Z"/><path class="cls-1" d="M23.21,57.57c-.25-.28-.26.21-.26.33a5.62,5.62,0,0,0-.09.57c0,.4.56.77.87.93.46.25.89.36,1.34.64a.5.5,0,0,0,.66,0,3,3,0,0,1,1-.36c.24,0,.87-.15,1,.11s-.13.61.3.58c0,.45-.86.57-.53,1.07.16.23.4.18.6.07s.15-.19.28-.22a2,2,0,0,1,.63.14,1.85,1.85,0,0,0,1.29,0c.37-.2.33-.56.36-.94s.6-1.13.21-1.63-1,.6-1.48.71a.83.83,0,0,1-.49-.67,1.83,1.83,0,0,0-.15-.77c-.26-.49-1-.51-.85-1.17.09-.34.2-.56-.19-.69a1.54,1.54,0,0,0-1,.06c-.27.11-.52.29-.79.4s-.43.06-.61.14c-.36.15-.31.5-.56.75A1.15,1.15,0,0,1,23.21,57.57Z"/><path class="cls-1" d="M34.76,63c-.34-.16-.56.07-.64.4a2.4,2.4,0,0,1-.55,1.21c-.32.32-.19.55,0,1,.06.16.07.31.12.46s.26.34.34.54c.2.47.2,1.09.35,1.58-.24.22-.68.5-.42.86.05.06.24.13.31.19a2,2,0,0,1,.48.53c.05.14,0,.35,0,.49a1.41,1.41,0,0,0,.21.56,7.09,7.09,0,0,1,.59,1.28c.25.66.82,1.11,1.1,1.77a6,6,0,0,0,.74,1.36,3.08,3.08,0,0,0,1.19,1.26,5.27,5.27,0,0,0,1,.29,3.08,3.08,0,0,1,1.25.72,1.58,1.58,0,0,0,1,.44c.37,0,.67.16,1,.22.55.08.88.51,1.41.64.34.09.64.28,1,.39a1,1,0,0,0,.45.09c.19,0,.35-.28.54-.25s.27.21.36.26a1.57,1.57,0,0,0,.42.13c.54.07,1.09,0,1.63.09a2.63,2.63,0,0,1,1,.36c.45.22.73.06,1.21-.07.69-.19,1.69,0,1.28-1a2.51,2.51,0,0,1-.2-1.61,1.28,1.28,0,0,0-.45-1.4A1.77,1.77,0,0,0,51,75.4c-.19-.1-.41-.08-.55-.26-.33-.41-.11-1.1-.41-1.51a4.62,4.62,0,0,0-1.14-1A2.9,2.9,0,0,1,48,71.59a2,2,0,0,0-.43-.43,2.82,2.82,0,0,1-.49-.79c-.3-.55-.88-.8-1.29-1.28-.24-.28-.45-.6-.7-.89A9.94,9.94,0,0,0,44,67.37a3.58,3.58,0,0,1-.81-.79c-.2-.28-.36-.27-.68-.32a2.86,2.86,0,0,1-1.71-.55c-.6-.54-.65-1.48-1.36-2s-1.62,0-2.28-.55-1.07-.94-1.83-.57C35.1,62.72,34.6,62.92,34.76,63Z"/><path class="cls-2" d="M34.76,68.38c-.09.25-.2.62.13.79s.53-.06.71-.12.45-.23.22-.54-.44,0-.61-.38c-.15.12-.46.24-.42.44"/><path class="cls-2" d="M37.72,71.21c0,.28-.17.15-.29.27s-.06.26-.12.5-.25.28-.23.44.34.3.47.33a2.23,2.23,0,0,0,.85-.13,4.12,4.12,0,0,1,.79,0c.48,0,.42.32.59.7,0,.08.13.13.16.21s0,.22,0,.29.34.12.58.16.44.18.58,0,0-.4,0-.53c0-.62-.17-.58-.74-.76a.79.79,0,0,1-.64-.7c0-.28,0-.33-.2-.52a2.6,2.6,0,0,0-.51-.38c-.29-.17-.4,0-.67.07a1.54,1.54,0,0,1-.64.11S37.73,71.31,37.72,71.21Z"/><path class="cls-1" d="M71.44,51.2c-.43-.53-1.34,0-1.29.64,0,.32.28.23.5.36s.21.39.21.7.11.33.19.55-.07.53-.25.76-.35.38-.52.57-.42.28-.83.38a2.56,2.56,0,0,0-1,.5c-.34.34-.28.51,0,.79l-.06.08c.23,0,.34,0,.49.16s.08.65.09.91a2.22,2.22,0,0,0,.14.63c.06.18,0,.54.15.66s.29,0,.43.11-.08.43.15.48.44-.84.48-1,0-.36.28-.49.45,0,.49-.32-.24-.39-.38-.58a1.24,1.24,0,0,1-.26-.95c.06-.28.26-.41.39-.65s.1-.44.24-.63.33-.29.37-.66c0-.2.08-.41.09-.61s-.08-.47-.06-.71a2.24,2.24,0,0,1,.22-.63.66.66,0,0,0,0-.61C71.58,51.37,71.31,51.3,71.44,51.2Z"/><path class="cls-1" d="M72,36.3a.26.26,0,0,0-.1-.13c-.28.28-.25.3-.2.64-.31.07-1,.24-.68.65.14.17.44.26.6.49s.16.35.34.38a2.45,2.45,0,0,1,0-1.11C72.05,36.78,72.11,36.58,72,36.3Z"/><path class="cls-1" d="M72.76,32.09l-.27-.25c-.29.06-.11.2,0,.32a1.12,1.12,0,0,1,.16.57.45.45,0,0,0,.28,0c.13-.23-.22-.49-.15-.71"/><path class="cls-1" d="M75.88,25.33c-.11.13-.17.53-.38.43-.16.31,0,1,0,1.34s-.07.2.09.36.16,0,.21.06,0,.15.09.19.1.2.33,0a1.13,1.13,0,0,0,.28-.34c0-.17-.09-.41-.12-.58a1.76,1.76,0,0,1,0-.42C76.39,26,76,25.71,75.88,25.33Z"/><path class="cls-1" d="M75.17,16.55c-.55-.25-.6.53-.83.78s-.5.27-.56.5.15.14.17.39c.06,0,.15,0,.22,0,.15.21.1.45.26.66s.34.55.58.48c0-.12-.1-.4,0-.49s.26,0,.26.17c.28,0,.1-.44.09-.64,0-.37.12-.38.31-.61C76.14,17.12,75.08,16.92,75.17,16.55Z"/></g></svg>