<svg xmlns="http://www.w3.org/2000/svg" viewBox="0 0 97.46 96.76"><defs><style>.cls-1{fill:#37a7b8;}.cls-2{fill:#164056;}.cls-3,.cls-4{fill:none;stroke-miterlimit:10;}.cls-3{stroke:#164056;stroke-width:1.74px;}.cls-4{stroke:#37a7b8;}</style></defs><title>Shop</title><g id="Shop"><circle class="cls-1" cx="48.03" cy="48.38" r="45.96"/><rect class="cls-2" x="19.3" y="43.43" width="57.21" height="28.87"/><line class="cls-3" x1="21.07" y1="20.28" x2="74.58" y2="20.28"/><path class="cls-1" d="M27.15,22.2H33L28.3,44.38c-.52,2.3-7.74,3.13-7.74-.32Z"/><path class="cls-2" d="M33,22.2h6.07L36.46,44.27c-.63,3.24-8.79,3.77-8.16.11Z"/><path class="cls-1" d="M39.07,22.2h6.17L44,44.17c-.11,2.09-7.43,3.34-7.53.1Z"/><path class="cls-2" d="M45.24,22.2h5.65l.94,22.07c0,2.41-8,3.43-7.84-.1Z"/><path class="cls-1" d="M50.89,22.2H57l2.71,22.18c0,3.34-7.84,3.24-7.84-.11Z"/><path class="cls-2" d="M57,22.2h5.85l4.6,22.07c.53,2.65-7.31,3.54-7.74.11Z"/><path class="cls-1" d="M62.81,22.2H69l6.17,21.86c.74,3.45-7.07,3.42-7.74.21Z"/><path class="cls-2" d="M69,22.2h5.6l8.31,21.55c1.26,3.66-6.93,4.5-7.74.31Z"/><rect class="cls-1" x="27.78" y="50.02" width="17.47" height="11.82"/><polygon class="cls-1" points="25.27 63.2 47.83 63.2 46.39 67.07 26.78 67.07 25.27 63.2"/><rect class="cls-4" x="53.09" y="49.5" width="17.15" height="22.8"/><rect class="cls-4" x="55.28" y="56.51" width="12.16" height="5.86"/><rect class="cls-2" x="15.64" y="72.3" width="64.74" height="4.18"/><path class="cls-2" d="M21.07,22.2h6.08L20.56,44.06c-.43,2.72-8.47,3.35-7.43,0Z"/></g></svg>