<?xml version="1.0" standalone="no"?>
<!DOCTYPE svg PUBLIC "-//W3C//DTD SVG 20010904//EN"
 "http://www.w3.org/TR/2001/REC-SVG-20010904/DTD/svg10.dtd">
<svg version="1.0" xmlns="http://www.w3.org/2000/svg"
 width="1351.000000pt" height="1351.000000pt" viewBox="0 0 1351.000000 1351.000000"
 preserveAspectRatio="xMidYMid meet">
<metadata>
Created by potrace 1.11, written by Peter Selinger 2001-2013
</metadata>
<g transform="translate(0.000000,1351.000000) scale(0.100000,-0.100000)"
fill="#000000" stroke="none">
<path d="M6429 12696 c-2 -3 -53 -7 -112 -11 -59 -3 -115 -8 -125 -9 -9 -2
-53 -7 -96 -11 -43 -4 -86 -8 -95 -10 -9 -1 -38 -6 -66 -9 -50 -7 -272 -42
-310 -50 -11 -2 -56 -12 -100 -21 -44 -9 -88 -18 -98 -20 -10 -2 -27 -7 -37
-10 -10 -3 -27 -7 -37 -9 -98 -20 -387 -104 -548 -160 -733 -255 -1405 -648
-2000 -1169 -91 -80 -420 -410 -509 -510 -377 -425 -723 -958 -961 -1477 -21
-47 -41 -87 -44 -90 -3 -3 -7 -16 -9 -30 -1 -13 -6 -27 -11 -30 -4 -3 -10 -14
-14 -25 -3 -11 -29 -78 -57 -150 -57 -146 -115 -316 -161 -474 -33 -111 -98
-368 -104 -411 -5 -33 -13 -67 -19 -88 -5 -17 -7 -28 -25 -142 -6 -36 -13 -74
-15 -85 -2 -11 -7 -41 -10 -67 -4 -26 -10 -68 -15 -93 -5 -25 -6 -45 -3 -45 2
0 -1 -7 -8 -15 -9 -11 -9 -15 -1 -15 7 0 10 -4 7 -8 -5 -8 -11 -58 -22 -182
-3 -41 -8 -95 -10 -120 -3 -25 -6 -168 -8 -318 -2 -150 -6 -276 -10 -279 -3
-3 -2 -13 3 -22 4 -9 9 -45 10 -81 2 -36 4 -81 6 -100 2 -19 6 -73 10 -120 3
-47 8 -98 10 -115 3 -16 7 -51 10 -77 7 -76 36 -264 55 -363 5 -27 12 -66 15
-85 6 -34 19 -93 52 -235 9 -38 38 -146 65 -240 27 -93 51 -177 53 -185 6 -25
80 -229 119 -330 400 -1030 1090 -1939 1980 -2608 575 -431 1233 -759 1924
-957 152 -43 411 -106 492 -119 19 -3 46 -8 60 -11 42 -8 133 -24 170 -29 19
-3 51 -8 70 -11 19 -3 58 -8 85 -11 28 -3 64 -7 80 -9 17 -2 64 -7 105 -11 41
-3 83 -8 92 -9 115 -22 862 -22 978 0 8 2 55 6 104 10 49 4 96 8 106 10 9 2
39 6 66 9 27 4 64 9 82 11 17 3 47 7 65 10 43 6 108 16 132 21 11 2 34 7 50 9
17 3 37 8 46 11 10 2 30 6 45 9 79 11 329 71 469 113 39 12 73 22 77 22 4 1
80 26 169 56 542 185 1024 427 1478 743 68 47 130 91 139 96 17 11 48 34 66
50 6 6 40 32 76 60 36 27 67 52 70 55 3 3 28 23 55 44 28 22 55 44 60 50 6 6
44 40 85 76 283 244 673 667 840 910 13 19 27 37 31 40 13 10 220 320 286 430
100 165 116 194 223 405 132 263 179 371 274 630 70 188 78 215 131 394 57
196 125 492 149 656 4 22 13 81 20 130 18 116 22 142 42 350 13 137 18 269 18
505 1 324 -12 554 -45 780 -5 36 -11 81 -14 100 -3 19 -7 51 -10 70 -3 19 -7
49 -10 65 -8 40 -36 195 -41 220 -2 11 -10 47 -18 80 -9 33 -18 76 -22 95 -7
41 -9 50 -17 70 -8 23 -99 343 -102 360 -1 8 -8 29 -15 45 -6 17 -25 68 -41
115 -17 47 -34 94 -38 105 -5 11 -15 36 -22 55 -7 19 -32 82 -57 140 -151 359
-313 665 -520 980 -70 107 -199 289 -212 300 -3 3 -17 21 -30 40 -22 33 -80
105 -153 193 -18 21 -31 43 -30 48 2 5 -3 9 -10 10 -6 0 -29 21 -51 47 -160
193 -513 538 -698 681 -26 20 -47 42 -48 49 0 7 -4 11 -9 8 -4 -3 -19 4 -32
15 -79 70 -431 318 -564 399 -169 103 -277 162 -456 252 -235 118 -217 110
-409 190 -124 52 -454 173 -500 183 -8 2 -55 15 -105 30 -81 24 -381 100 -430
109 -98 19 -248 46 -285 52 -71 10 -93 14 -120 19 -27 5 -186 23 -285 31 -33
3 -73 7 -90 10 -35 7 -770 15 -776 10z"/>
</g>
</svg>
